<?xml version="1.0" encoding="UTF-8"?>
<svg version="1.1" xmlns="http://www.w3.org/2000/svg" width="300" height="157">
<path d="M0 0 C99 0 198 0 300 0 C300 51.81 300 103.62 300 157 C201 157 102 157 0 157 C0 105.19 0 53.38 0 0 Z " fill="#FCFCFC" transform="translate(0,0)"/>
<path d="M0 0 C28.71 0 57.42 0 87 0 C87 6.93 87 13.86 87 21 C58.29 21 29.58 21 0 21 C0 14.07 0 7.14 0 0 Z " fill="#090909" transform="translate(105,48)"/>
<path d="M0 0 C3.87485635 -0.08751413 7.74945643 -0.14056435 11.625 -0.1875 C13.26662109 -0.22520508 13.26662109 -0.22520508 14.94140625 -0.26367188 C20.84754806 -0.31736407 24.83661451 -0.1379267 30 3 C37.82112333 5.41831053 44.51045042 7.07712687 52.3125 4.125 C54.3125 2.94791667 54.3125 2.94791667 56 0 C58.24658203 -0.34057617 58.24658203 -0.34057617 61.0078125 -0.29296875 C61.99394531 -0.28330078 62.98007813 -0.27363281 63.99609375 -0.26367188 C65.02863281 -0.23853516 66.06117188 -0.21339844 67.125 -0.1875 C68.68541016 -0.16719727 68.68541016 -0.16719727 70.27734375 -0.14648438 C72.85207627 -0.11105228 75.4257833 -0.06165221 78 0 C78 0.66 78 1.32 78 2 C77.34 2 76.68 2 76 2 C77.06201737 4.22739701 77.06201737 4.22739701 79 7 C78.34 8.65 77.68 10.3 77 12 C73.04 12 69.08 12 65 12 C65 12.66 65 13.32 65 14 C67.97 14 70.94 14 74 14 C73.34 15.32 72.68 16.64 72 18 C69.69 17.34 67.38 16.68 65 16 C65.495 19.465 65.495 19.465 66 23 C65.01 23 64.02 23 63 23 C61.97980427 23.9793879 60.97850195 24.97895449 60 26 C59.34 26 58.68 26 58 26 C58 25.34 58 24.68 58 24 C56.68 23.67 55.36 23.34 54 23 C54 23.66 54 24.32 54 25 C52.35 24.67 50.7 24.34 49 24 C49 25.65 49 27.3 49 29 C47.95199219 28.98259766 47.95199219 28.98259766 46.8828125 28.96484375 C45.97273438 28.95582031 45.06265625 28.94679688 44.125 28.9375 C43.22007812 28.92589844 42.31515625 28.91429688 41.3828125 28.90234375 C38.9831415 28.83750743 38.9831415 28.83750743 37 30 C36.505 29.319375 36.01 28.63875 35.5 27.9375 C34.675 27.298125 33.85 26.65875 33 26 C31.02902466 26.25848857 29.05740997 26.52363059 27.1015625 26.87890625 C23.10159566 27.10938761 21.08692111 25.45693721 18 23 C17.0625 19.75 17.0625 19.75 17 17 C15.02 17.33 13.04 17.66 11 18 C11 17.34 11 16.68 11 16 C10.34 16 9.68 16 9 16 C7.4921875 14.25 7.4921875 14.25 5.875 12 C5.33617188 11.2575 4.79734375 10.515 4.2421875 9.75 C3.83226563 9.1725 3.42234375 8.595 3 8 C3.99 6.02 4.98 4.04 6 2 C4.02 2 2.04 2 0 2 C0 1.34 0 0.68 0 0 Z " fill="#989898" transform="translate(107,72)"/>
<path d="M0 0 C0.66 0.33 1.32 0.66 2 1 C3.70702735 1.06996014 5.41668003 1.08440154 7.125 1.0625 C8.49011719 1.04896484 8.49011719 1.04896484 9.8828125 1.03515625 C10.58148438 1.02355469 11.28015625 1.01195313 12 1 C12 2.65 12 4.3 12 6 C13.11375 5.7215625 13.11375 5.7215625 14.25 5.4375 C16.94990963 5.00796892 18.44631077 5.14877026 21 6 C21 5.34 21 4.68 21 4 C23.31 4.66 25.62 5.32 28 6 C28.79953138 9.28696233 29.09658936 10.71023192 28 14 C28.5775 13.649375 29.155 13.29875 29.75 12.9375 C32 12 32 12 34.125 12.1875 C36 13 36 13 38 16 C36.35 16 34.7 16 33 16 C33 15.34 33 14.68 33 14 C32.34 14 31.68 14 31 14 C31 14.66 31 15.32 31 16 C30.01 16 29.02 16 28 16 C28 16.66 28 17.32 28 18 C28.74765625 17.95359375 29.4953125 17.9071875 30.265625 17.859375 C38.40994854 17.56089194 38.40994854 17.56089194 41.6875 20 C42.120625 20.66 42.55375 21.32 43 22 C42.34 23.32 41.68 24.64 41 26 C42.65 26.66 44.3 27.32 46 28 C46 28.66 46 29.32 46 30 C41.79203314 30.14570522 37.58471834 30.23421087 33.375 30.3125 C32.18519531 30.35439453 30.99539062 30.39628906 29.76953125 30.43945312 C19.87733186 30.57761233 19.87733186 30.57761233 16.1640625 27.60546875 C14 25 14 25 14 23 C7.32288172 23.93169092 0.66226455 24.96810038 -6 26 C-6 25.34 -6 24.68 -6 24 C-6.66 24 -7.32 24 -8 24 C-8.12375 24.928125 -8.12375 24.928125 -8.25 25.875 C-9 28 -9 28 -10.75 29.25 C-13.28737029 30.0957901 -15.34234296 30.14764761 -18 30 C-18 29.01 -18 28.02 -18 27 C-19.32 27 -20.64 27 -22 27 C-22 27.66 -22 28.32 -22 29 C-24.31 29 -26.62 29 -29 29 C-29.33 26.69 -29.66 24.38 -30 22 C-29.01 21.67 -28.02 21.34 -27 21 C-28.32 20.67 -29.64 20.34 -31 20 C-30.1875 17.5625 -30.1875 17.5625 -29 15 C-28.01 14.67 -27.02 14.34 -26 14 C-26 13.34 -26 12.68 -26 12 C-23.03 12.495 -23.03 12.495 -20 13 C-20 11.02 -20 9.04 -20 7 C-18.39967863 6.15930585 -16.79458829 5.32768495 -15.1875 4.5 C-14.29417969 4.0359375 -13.40085938 3.571875 -12.48046875 3.09375 C-10 2 -10 2 -7 2 C-6.01 3.485 -6.01 3.485 -5 5 C-3.35 3.35 -1.7 1.7 0 0 Z " fill="#696969" transform="translate(144,15)"/>
<path d="M0 0 C2.24658203 -0.34057617 2.24658203 -0.34057617 5.0078125 -0.29296875 C5.99394531 -0.28330078 6.98007813 -0.27363281 7.99609375 -0.26367188 C9.02863281 -0.23853516 10.06117188 -0.21339844 11.125 -0.1875 C12.68541016 -0.16719727 12.68541016 -0.16719727 14.27734375 -0.14648438 C16.85207627 -0.11105228 19.4257833 -0.06165221 22 0 C22 0.66 22 1.32 22 2 C21.34 2 20.68 2 20 2 C21.06201737 4.22739701 21.06201737 4.22739701 23 7 C22.34 8.65 21.68 10.3 21 12 C17.04 12 13.08 12 9 12 C9 12.66 9 13.32 9 14 C11.97 14 14.94 14 18 14 C17.34 15.32 16.68 16.64 16 18 C13.69 17.34 11.38 16.68 9 16 C9.495 19.465 9.495 19.465 10 23 C9.01 23 8.02 23 7 23 C5.97980427 23.9793879 4.97850195 24.97895449 4 26 C3.34 26 2.68 26 2 26 C2 25.34 2 24.68 2 24 C0.35 24 -1.3 24 -3 24 C-4.10107995 20.69676014 -3.86709271 19.29495231 -3 16 C-2.67 15.67 -2.34 15.34 -2 15 C-2.99 15 -3.98 15 -5 15 C-5 16.32 -5 17.64 -5 19 C-6.32 19 -7.64 19 -9 19 C-9 20.32 -9 21.64 -9 23 C-10.32 23 -11.64 23 -13 23 C-14.75 21.25 -14.75 21.25 -16 19 C-16 17.68 -16 16.36 -16 15 C-16.66 15 -17.32 15 -18 15 C-17.34 16.98 -16.68 18.96 -16 21 C-16.99 20.67 -17.98 20.34 -19 20 C-19 19.01 -19 18.02 -19 17 C-19.598125 17.33 -20.19625 17.66 -20.8125 18 C-23 19 -23 19 -26 19 C-26 18.34 -26 17.68 -26 17 C-25.360625 16.71125 -24.72125 16.4225 -24.0625 16.125 C-21.84793921 15.17176549 -21.84793921 15.17176549 -21 13 C-17.33333333 13 -13.66666667 13 -10 13 C-9.34 11.68 -8.68 10.36 -8 9 C-8.66 9 -9.32 9 -10 9 C-10.33 9.66 -10.66 10.32 -11 11 C-13.875 11.125 -13.875 11.125 -17 11 C-17.66 10.34 -18.32 9.68 -19 9 C-18.01 9 -17.02 9 -16 9 C-16 8.01 -16 7.02 -16 6 C-15.32453125 5.95101562 -14.6490625 5.90203125 -13.953125 5.8515625 C-13.06109375 5.77679688 -12.1690625 5.70203125 -11.25 5.625 C-10.36828125 5.55539063 -9.4865625 5.48578125 -8.578125 5.4140625 C-5.9487686 4.99177193 -4.23662062 4.42949231 -2 3 C-1.34 2.01 -0.68 1.02 0 0 Z " fill="#252525" transform="translate(163,72)"/>
<path d="M0 0 C0.70640625 -0.04898438 1.4128125 -0.09796875 2.140625 -0.1484375 C6.43919077 0.71384964 9.78861574 2.0503457 12.75 5.375 C13.90615885 9.56301723 13.77795993 13.5575826 13.625 17.875 C13.63917969 19.00292969 13.65335938 20.13085938 13.66796875 21.29296875 C13.54781056 29.10325078 13.54781056 29.10325078 11.57666016 32.24536133 C7.17302864 36.30751928 2.59235389 36.1462216 -3.0390625 35.93359375 C-7.78519823 35.1079278 -11.19696 33.11411641 -14.25 29.375 C-14.58 28.055 -14.91 26.735 -15.25 25.375 C-8.98 25.375 -2.71 25.375 3.75 25.375 C3.75 20.425 3.75 15.475 3.75 10.375 C-2.52 10.375 -8.79 10.375 -15.25 10.375 C-14.01322795 5.42791181 -12.30486819 4.31676712 -8.25 1.375 C-5.51536588 0.49660237 -2.86497701 0.13397375 0 0 Z " fill="#121212" transform="translate(89.25,40.625)"/>
<path d="M0 0 C3.02583311 1.70316354 5.49731159 3.51226449 7.6875 6.25 C7.6875 6.91 7.6875 7.57 7.6875 8.25 C1.0875 8.25 -5.5125 8.25 -12.3125 8.25 C-12.3125 13.2 -12.3125 18.15 -12.3125 23.25 C-5.7125 23.25 0.8875 23.25 7.6875 23.25 C5.15166444 28.32167111 1.86875561 31.03895136 -3.3125 33.25 C-5.609375 33.62109375 -5.609375 33.62109375 -8.0625 33.6875 C-9.26132813 33.74744141 -9.26132813 33.74744141 -10.484375 33.80859375 C-14.88002937 32.9403913 -18.28736356 31.66014575 -21.3125 28.25 C-22.5156051 24.06397389 -22.4312371 20.07895688 -22.3125 15.75 C-22.3434375 14.62207031 -22.374375 13.49414062 -22.40625 12.33203125 C-22.3309412 4.37753892 -22.3309412 4.37753892 -19.61914062 1.37524414 C-13.23467214 -2.8181094 -6.91234706 -3.21892229 0 0 Z " fill="#111111" transform="translate(216.3125,42.75)"/>
<path d="M0 0 C0.94786377 0.02094727 1.89572754 0.04189453 2.87231445 0.06347656 C4.41435547 0.0828125 4.41435547 0.0828125 5.98754883 0.10253906 C7.0594043 0.13605469 8.13125977 0.16957031 9.2355957 0.20410156 C10.31905273 0.22214844 11.40250977 0.24019531 12.51879883 0.25878906 C15.19611717 0.30596648 17.8716648 0.37177907 20.5480957 0.45410156 C20.8780957 2.10410156 21.2080957 3.75410156 21.5480957 5.45410156 C13.9580957 5.78410156 6.3680957 6.11410156 -1.4519043 6.45410156 C-1.7819043 7.77410156 -2.1119043 9.09410156 -2.4519043 10.45410156 C-1.80116943 10.43839111 -1.15043457 10.42268066 -0.47998047 10.40649414 C2.46678995 10.34415507 5.41342168 10.30511473 8.3605957 10.26660156 C9.89683594 10.22889648 9.89683594 10.22889648 11.46411133 10.19042969 C12.93847656 10.17592773 12.93847656 10.17592773 14.44262695 10.16113281 C15.80158081 10.13756714 15.80158081 10.13756714 17.18798828 10.11352539 C19.5480957 10.45410156 19.5480957 10.45410156 21.34375 11.72631836 C23.04119708 14.16151661 22.91303976 16.52176262 22.9465332 19.41894531 C22.41175203 22.15052368 21.46705238 23.44029842 19.5480957 25.45410156 C17.09619141 25.90820312 17.09619141 25.90820312 14.22387695 25.84472656 C13.19584961 25.83183594 12.16782227 25.81894531 11.10864258 25.80566406 C10.03678711 25.77214844 8.96493164 25.73863281 7.8605957 25.70410156 C6.77713867 25.68605469 5.69368164 25.66800781 4.57739258 25.64941406 C1.90007424 25.60223665 -0.77547339 25.53642406 -3.4519043 25.45410156 C-3.83409197 23.79795499 -4.16585531 22.12953132 -4.4519043 20.45410156 C-3.4519043 19.45410156 -3.4519043 19.45410156 -1.22705078 19.34057617 C-0.26871338 19.34581299 0.68962402 19.3510498 1.67700195 19.35644531 C3.22871094 19.3612793 3.22871094 19.3612793 4.81176758 19.36621094 C5.90038086 19.37458984 6.98899414 19.38296875 8.1105957 19.39160156 C9.74931641 19.39836914 9.74931641 19.39836914 11.42114258 19.40527344 C14.13018065 19.4171033 16.8391117 19.43358613 19.5480957 19.45410156 C19.5480957 18.13410156 19.5480957 16.81410156 19.5480957 15.45410156 C18.89736084 15.47504883 18.24662598 15.49599609 17.57617188 15.51757812 C14.62947015 15.60069495 11.6830148 15.65274641 8.7355957 15.70410156 C7.71143555 15.73761719 6.68727539 15.77113281 5.63208008 15.80566406 C4.64916992 15.81855469 3.66625977 15.83144531 2.65356445 15.84472656 C1.74759521 15.86567383 0.84162598 15.88662109 -0.09179688 15.90820312 C-2.4519043 15.45410156 -2.4519043 15.45410156 -4.24755859 13.6484375 C-6.00600524 10.44452132 -5.83678661 8.04633653 -5.4519043 4.45410156 C-3.91497598 1.62164068 -3.22120181 0.59657825 0 0 Z " fill="#1C1C1C" transform="translate(208.451904296875,108.5458984375)"/>
<path d="M0 0 C3.87485635 -0.08751413 7.74945643 -0.14056435 11.625 -0.1875 C13.26662109 -0.22520508 13.26662109 -0.22520508 14.94140625 -0.26367188 C20.81850697 -0.31710006 24.88087501 -0.18384603 30 3 C31.77671242 3.60808608 33.56844419 4.17482876 35.375 4.6875 C36.68597656 5.06455078 36.68597656 5.06455078 38.0234375 5.44921875 C39.00183594 5.72185547 39.00183594 5.72185547 40 6 C39.67 7.32 39.34 8.64 39 10 C40.98 10.33 42.96 10.66 45 11 C45.33 10.01 45.66 9.02 46 8 C46.66 8.33 47.32 8.66 48 9 C46.87548273 11.9719385 45.77706209 14.33440687 44 17 C44 15.68 44 14.36 44 13 C41.03 13 38.06 13 35 13 C34.34 14.32 33.68 15.64 33 17 C30.875 17.75 30.875 17.75 29 18 C29 17.01 29 16.02 29 15 C29.99 14.67 30.98 14.34 32 14 C31.01 14 30.02 14 29 14 C29 13.01 29 12.02 29 11 C28.4225 10.71125 27.845 10.4225 27.25 10.125 C25.16666667 9.08333333 23.08333333 8.04166667 21 7 C21 7.66 21 8.32 21 9 C18.66666667 9 16.33333333 9 14 9 C14 9.66 14 10.32 14 11 C12.68 11 11.36 11 10 11 C9.67 12.32 9.34 13.64 9 15 C7.02 12.69 5.04 10.38 3 8 C3.99 6.02 4.98 4.04 6 2 C4.02 2 2.04 2 0 2 C0 1.34 0 0.68 0 0 Z " fill="#989898" transform="translate(107,72)"/>
<path d="M0 0 C17.16 0 34.32 0 52 0 C52.495 2.475 52.495 2.475 53 5 C51.91468994 5.02505615 50.82937988 5.0501123 49.71118164 5.07592773 C45.698684 5.16983755 41.68636618 5.27009767 37.67407227 5.37231445 C35.93485712 5.41572573 34.19559765 5.45739612 32.45629883 5.49731445 C29.96161512 5.55486768 27.4671559 5.6186042 24.97265625 5.68359375 C24.19036148 5.70030624 23.40806671 5.71701874 22.60206604 5.73423767 C19.00128219 5.50648731 19.00128219 5.50648731 16 7 C15.76321284 9.69235776 15.57801975 12.36498156 15.4375 15.0625 C15.39431641 15.82111328 15.35113281 16.57972656 15.30664062 17.36132812 C15.20026367 19.24065438 15.09960066 21.12030244 15 23 C13.68 23.33 12.36 23.66 11 24 C10.97285265 21.77090129 10.95353746 19.54170633 10.9375 17.3125 C10.92589844 16.07113281 10.91429687 14.82976562 10.90234375 13.55078125 C11 10 11 10 12 5 C8.04 5 4.08 5 0 5 C0 3.35 0 1.7 0 0 Z " fill="#1A1A1A" transform="translate(7,109)"/>
<path d="M0 0 C11.33333333 0 22.66666667 0 34 0 C34.66257813 -0.01160156 35.32515625 -0.02320313 36.0078125 -0.03515625 C38.00507614 -0.06095117 40.00282955 -0.03221243 42 0 C43 1 43 1 43.09765625 2.84765625 C43.06510417 4.8984375 43.03255208 6.94921875 43 9 C42.34 9 41.68 9 41 9 C41 6.69 41 4.38 41 2 C39.02 2 37.04 2 35 2 C35 4.31 35 6.62 35 9 C23.33333333 9 11.66666667 9 0 9 C-1.125 3.375 -1.125 3.375 0 0 Z " fill="#7E7E7E" transform="translate(144,54)"/>
<path d="M0 0 C1.02673828 0.02707031 2.05347656 0.05414063 3.11132812 0.08203125 C5.63887576 0.15256746 8.16210043 0.25106571 10.6875 0.375 C11.06968767 2.03114657 11.40145102 3.69957024 11.6875 5.375 C10.6875 6.375 10.6875 6.375 8.46264648 6.48852539 C7.50430908 6.48328857 6.54597168 6.47805176 5.55859375 6.47265625 C4.00688477 6.46782227 4.00688477 6.46782227 2.42382812 6.46289062 C1.33521484 6.45451172 0.24660156 6.44613281 -0.875 6.4375 C-2.5137207 6.43073242 -2.5137207 6.43073242 -4.18554688 6.42382812 C-6.89458495 6.41199826 -9.60351599 6.39551543 -12.3125 6.375 C-12.33958567 7.97907328 -12.35893483 9.5832785 -12.375 11.1875 C-12.38660156 12.08082031 -12.39820313 12.97414063 -12.41015625 13.89453125 C-12.42259967 16.50913791 -12.42259967 16.50913791 -11.3125 19.375 C-3.7225 19.705 3.8675 20.035 11.6875 20.375 C11.3575 22.025 11.0275 23.675 10.6875 25.375 C3.0975 25.375 -4.4925 25.375 -12.3125 25.375 C-16.88161765 16.23676471 -16.88161765 16.23676471 -16.875 11.75 C-16.89691406 10.87085937 -16.91882813 9.99171875 -16.94140625 9.0859375 C-14.69975346 -0.57683913 -8.54874327 -0.42661675 0 0 Z " fill="#292929" transform="translate(251.3125,108.625)"/>
<path d="M0 0 C1.02673828 0.02707031 2.05347656 0.05414063 3.11132812 0.08203125 C5.63887576 0.15256746 8.16210043 0.25106571 10.6875 0.375 C10.6875 2.355 10.6875 4.335 10.6875 6.375 C3.0975 6.375 -4.4925 6.375 -12.3125 6.375 C-12.3125 10.335 -12.3125 14.295 -12.3125 18.375 C-4.7225 18.705 2.8675 19.035 10.6875 19.375 C10.6875 21.025 10.6875 22.675 10.6875 24.375 C6.93808747 24.54932891 3.18971491 24.65585841 -0.5625 24.75 C-2.15771484 24.82541016 -2.15771484 24.82541016 -3.78515625 24.90234375 C-6.73601462 24.95802032 -9.4121223 24.92571545 -12.3125 24.375 C-15.33814567 21.40627676 -16.10175483 19.49122269 -16.87890625 15.375 C-16.87761719 14.385 -16.87632812 13.395 -16.875 12.375 C-16.89691406 11.385 -16.91882813 10.395 -16.94140625 9.375 C-16.27605356 6.20114369 -15.32450104 3.94222702 -13.11547852 1.52636719 C-9.21333967 -0.96550644 -4.45427871 -0.22228646 0 0 Z " fill="#262626" transform="translate(282.3125,108.625)"/>
<path d="M0 0 C1.32 0 2.64 0 4 0 C6.97 5.28 9.94 10.56 13 16 C16.00771455 12.99228545 17.75988784 10.02687582 19.6875 6.3125 C20.16799805 5.40274414 20.16799805 5.40274414 20.65820312 4.47460938 C21.44371484 2.98565434 22.22252942 1.49316953 23 0 C25.475 0.495 25.475 0.495 28 1 C28 8.26 28 15.52 28 23 C27.01 23 26.02 23 25 23 C24.67 18.05 24.34 13.1 24 8 C21.36 12.95 18.72 17.9 16 23 C11 22 11 22 8.76171875 18.83984375 C8.05306746 17.54837644 7.36212376 16.24706376 6.6875 14.9375 C6.32849609 14.27427734 5.96949219 13.61105469 5.59960938 12.92773438 C4.71774023 11.29333689 3.85679406 9.64768088 3 8 C2.67 12.95 2.34 17.9 2 23 C1.01 23 0.02 23 -1 23 C-1.02887512 19.35418313 -1.04675585 15.70839537 -1.0625 12.0625 C-1.07087891 11.02158203 -1.07925781 9.98066406 -1.08789062 8.90820312 C-1.09272461 7.42416992 -1.09272461 7.42416992 -1.09765625 5.91015625 C-1.10289307 4.99371338 -1.10812988 4.07727051 -1.11352539 3.13305664 C-1 1 -1 1 0 0 Z " fill="#1A1A1A" transform="translate(93,110)"/>
<path d="M0 0 C8.58 0 17.16 0 26 0 C26.33 1.32 26.66 2.64 27 4 C26 5 26 5 23.77514648 5.11352539 C22.81680908 5.10828857 21.85847168 5.10305176 20.87109375 5.09765625 C19.31938477 5.09282227 19.31938477 5.09282227 17.73632812 5.08789062 C16.64771484 5.07951172 15.55910156 5.07113281 14.4375 5.0625 C12.7987793 5.05573242 12.7987793 5.05573242 11.12695312 5.04882812 C8.41791505 5.03699826 5.70898401 5.02051543 3 5 C3.33 6.32 3.66 7.64 4 9 C11.92 9.33 19.84 9.66 28 10 C27.67 11.65 27.34 13.3 27 15 C23.06274674 15.11594584 19.12593077 15.18716464 15.1875 15.25 C14.06794922 15.28351563 12.94839844 15.31703125 11.79492188 15.3515625 C10.72177734 15.36445313 9.64863281 15.37734375 8.54296875 15.390625 C7.0583313 15.4220459 7.0583313 15.4220459 5.54370117 15.45410156 C3 15 3 15 0 11 C0 7.37 0 3.74 0 0 Z " fill="#121212" transform="translate(32,119)"/>
<path d="M0 0 C0.91644287 0.00523682 1.83288574 0.01047363 2.77709961 0.01586914 C3.76645508 0.0190918 4.75581055 0.02231445 5.77514648 0.02563477 C6.81606445 0.03401367 7.85698242 0.04239258 8.92944336 0.05102539 C10.49662109 0.05779297 10.49662109 0.05779297 12.09545898 0.06469727 C14.68600996 0.07652627 17.27644895 0.0930085 19.86694336 0.11352539 C19.86694336 0.77352539 19.86694336 1.43352539 19.86694336 2.11352539 C19.20694336 2.11352539 18.54694336 2.11352539 17.86694336 2.11352539 C18.92896073 4.3409224 18.92896073 4.3409224 20.86694336 7.11352539 C20.20694336 8.76352539 19.54694336 10.41352539 18.86694336 12.11352539 C13.91694336 12.11352539 8.96694336 12.11352539 3.86694336 12.11352539 C3.86694336 13.10352539 3.86694336 14.09352539 3.86694336 15.11352539 C2.21694336 15.11352539 0.56694336 15.11352539 -1.13305664 15.11352539 C-1.13305664 14.45352539 -1.13305664 13.79352539 -1.13305664 13.11352539 C-3.11305664 13.11352539 -5.09305664 13.11352539 -7.13305664 13.11352539 C-7.13305664 12.45352539 -7.13305664 11.79352539 -7.13305664 11.11352539 C-5.15305664 10.78352539 -3.17305664 10.45352539 -1.13305664 10.11352539 C-1.13305664 9.45352539 -1.13305664 8.79352539 -1.13305664 8.11352539 C-2.78305664 8.11352539 -4.43305664 8.11352539 -6.13305664 8.11352539 C-5.14305664 7.45352539 -4.15305664 6.79352539 -3.13305664 6.11352539 C-2.96633812 3.57175469 -2.96633812 3.57175469 -3.13305664 1.11352539 C-2.13305664 0.11352539 -2.13305664 0.11352539 0 0 Z " fill="#6B6B6B" transform="translate(165.133056640625,71.886474609375)"/>
<path d="M0 0 C0.66 0 1.32 0 2 0 C2 2.97 2 5.94 2 9 C11.65785282 8.65071057 17.15613366 7.09734288 24 0 C24.66 0 25.32 0 26 0 C25.54300722 5.02692063 23.00758252 8.14896261 20 12 C20.433125 12.37511719 20.86625 12.75023438 21.3125 13.13671875 C25.91766724 17.36878216 25.91766724 17.36878216 26.375 20.875 C26.25125 21.57625 26.1275 22.2775 26 23 C23.0398001 21.65622505 20.91473965 20.09276105 18.5 17.9375 C13.45832621 14.01301529 8.20054525 14.02066848 2 14 C2 16.97 2 19.94 2 23 C1.01 22.67 0.02 22.34 -1 22 C-1.02887814 18.52085059 -1.04675687 15.04173169 -1.0625 11.5625 C-1.07087891 10.56927734 -1.07925781 9.57605469 -1.08789062 8.55273438 C-1.09111328 7.60849609 -1.09433594 6.66425781 -1.09765625 5.69140625 C-1.10289307 4.81685791 -1.10812988 3.94230957 -1.11352539 3.04125977 C-1 1 -1 1 0 0 Z " fill="#1A1A1A" transform="translate(141,110)"/>
<path d="M0 0 C1.62490954 -0.02698189 3.24994633 -0.04638757 4.875 -0.0625 C5.77992188 -0.07410156 6.68484375 -0.08570312 7.6171875 -0.09765625 C10 0 10 0 12 1 C14.78781084 1.27485459 17.57535455 1.44612738 20.37109375 1.62109375 C23 2 23 2 26 4 C26.33 3.34 26.66 2.68 27 2 C27.66 3.32 28.32 4.64 29 6 C28.01 7.485 28.01 7.485 27 9 C28.65 9.66 30.3 10.32 32 11 C32 11.66 32 12.32 32 13 C27.70834738 13.02891949 23.41671964 13.04677118 19.125 13.0625 C17.90167969 13.07087891 16.67835938 13.07925781 15.41796875 13.08789062 C13.66806641 13.09272461 13.66806641 13.09272461 11.8828125 13.09765625 C10.26463623 13.10551147 10.26463623 13.10551147 8.61376953 13.11352539 C6 13 6 13 4 12 C4 11.34 4 10.68 4 10 C5.32 10 6.64 10 8 10 C8 8.35 8 6.7 8 5 C5.69 5.33 3.38 5.66 1 6 C1.639375 5.690625 2.27875 5.38125 2.9375 5.0625 C4.93610821 4.1654837 4.93610821 4.1654837 6 3 C3.03 2.505 3.03 2.505 0 2 C0 1.34 0 0.68 0 0 Z " fill="#858585" transform="translate(158,32)"/>
<path d="M0 0 C1.32 0.33 2.64 0.66 4 1 C3.84402344 1.55429688 3.68804687 2.10859375 3.52734375 2.6796875 C3.33269531 3.40414062 3.13804687 4.12859375 2.9375 4.875 C2.74027344 5.59429687 2.54304688 6.31359375 2.33984375 7.0546875 C1.78867393 9.07273593 1.78867393 9.07273593 3 11 C0.525 10.505 0.525 10.505 -2 10 C-2 11.65 -2 13.3 -2 15 C-2.69867188 14.98839844 -3.39734375 14.97679688 -4.1171875 14.96484375 C-5.02726562 14.95582031 -5.93734375 14.94679688 -6.875 14.9375 C-7.77992188 14.92589844 -8.68484375 14.91429688 -9.6171875 14.90234375 C-12.0168585 14.83750743 -12.0168585 14.83750743 -14 16 C-16.04119788 14.38405168 -18.04072937 12.7143618 -20 11 C-20 10.34 -20 9.68 -20 9 C-21.65 9.33 -23.3 9.66 -25 10 C-25 9.34 -25 8.68 -25 8 C-25.66 8 -26.32 8 -27 8 C-27 7.34 -27 6.68 -27 6 C-26.39671875 5.86722656 -25.7934375 5.73445313 -25.171875 5.59765625 C-24.37265625 5.42105469 -23.5734375 5.24445313 -22.75 5.0625 C-21.96109375 4.88847656 -21.1721875 4.71445313 -20.359375 4.53515625 C-18.23121297 4.052444 -16.11467158 3.53836822 -14 3 C-13.67 3.66 -13.34 4.32 -13 5 C-13 3.68 -13 2.36 -13 1 C-12.34 1 -11.68 1 -11 1 C-9.92474806 3.65228812 -8.90543849 6.28368454 -8 9 C-6.02463255 8.65213292 -6.02463255 8.65213292 -4 8 C-3.67 7.34 -3.34 6.68 -3 6 C-3.66 5.67 -4.32 5.34 -5 5 C-4.34 3.68 -3.68 2.36 -3 1 C-3 2.32 -3 3.64 -3 5 C-2.34 4.67 -1.68 4.34 -1 4 C-0.34786708 1.97536745 -0.34786708 1.97536745 0 0 Z " fill="#A8A8A8" transform="translate(158,86)"/>
<path d="M0 0 C0.99 0 1.98 0 3 0 C3.10861833 2.70942393 3.18758577 5.414439 3.25 8.125 C3.30027344 9.26582031 3.30027344 9.26582031 3.3515625 10.4296875 C3.4182044 14.29491783 3.05405467 16.86364862 1.609375 20.5078125 C-1.72613559 23.69352471 -3.76653989 23.78037979 -8.265625 23.8203125 C-9.16796875 23.79710937 -10.0703125 23.77390625 -11 23.75 C-12.35351562 23.78480469 -12.35351562 23.78480469 -13.734375 23.8203125 C-16.30947926 23.79745655 -18.51365261 23.67402349 -21 23 C-23.640625 20.1328125 -23.640625 20.1328125 -25 17 C-24.75 14.125 -24.75 14.125 -24 12 C-23.34 12 -22.68 12 -22 12 C-21.34 13.65 -20.68 15.3 -20 17 C-17.02077407 17.02683987 -14.04178705 17.04676037 -11.0625 17.0625 C-10.21236328 17.07087891 -9.36222656 17.07925781 -8.48632812 17.08789062 C-7.67744141 17.09111328 -6.86855469 17.09433594 -6.03515625 17.09765625 C-5.2862915 17.10289307 -4.53742676 17.10812988 -3.76586914 17.11352539 C-1.97332261 17.19341752 -1.97332261 17.19341752 -1 16 C-0.76321284 13.30764224 -0.57801975 10.63501844 -0.4375 7.9375 C-0.39431641 7.17888672 -0.35113281 6.42027344 -0.30664062 5.63867188 C-0.20026367 3.75934562 -0.09960066 1.87969756 0 0 Z " fill="#1C1C1C" transform="translate(196,110)"/>
<path d="M0 0 C6.66666667 0 13.33333333 0 20 0 C20 2.97 20 5.94 20 9 C13.33333333 9 6.66666667 9 0 9 C-1.125 2.25 -1.125 2.25 0 0 Z " fill="#BBBBBB" transform="translate(122,54)"/>
<path d="M0 0 C2.39010587 0.37392777 3.6678787 0.62921384 5.30859375 2.4609375 C14.44453519 17.95094201 14.44453519 17.95094201 14 25 C11 24 11 24 9.92504883 22.32592773 C9.44588013 21.26547241 9.44588013 21.26547241 8.95703125 20.18359375 C8.60576172 19.41982422 8.25449219 18.65605469 7.89257812 17.86914062 C7.53615234 17.06669922 7.17972656 16.26425781 6.8125 15.4375 C6.44447266 14.63119141 6.07644531 13.82488281 5.69726562 12.99414062 C4.78875511 11.00013702 3.89019664 9.00223042 3 7 C2.34 7 1.68 7 1 7 C0.66005005 7.76461548 0.66005005 7.76461548 0.31323242 8.54467773 C-0.71784358 10.84731777 -1.764905 13.14233126 -2.8125 15.4375 C-3.16892578 16.23994141 -3.52535156 17.04238281 -3.89257812 17.86914062 C-4.24384766 18.63291016 -4.59511719 19.39667969 -4.95703125 20.18359375 C-5.27647705 20.89056396 -5.59592285 21.59753418 -5.92504883 22.32592773 C-7 24 -7 24 -10 25 C-9.50782515 19.13235294 -7.74216232 14.86021529 -5 9.6875 C-4.63132812 8.97271484 -4.26265625 8.25792969 -3.8828125 7.52148438 C-2.93002285 5.67675842 -1.96580568 3.83794487 -1 2 C-0.67 1.34 -0.34 0.68 0 0 Z " fill="#212121" transform="translate(74,108)"/>
<path d="M0 0 C0.33 0 0.66 0 1 0 C1.36732224 7.34644478 1.36732224 7.34644478 -0.18554688 10.109375 C-2 12 -2 12 -4.4519043 12.45410156 C-5.87369995 12.42268066 -5.87369995 12.42268066 -7.32421875 12.390625 C-8.35224609 12.37773437 -9.38027344 12.36484375 -10.43945312 12.3515625 C-11.51130859 12.31804687 -12.58316406 12.28453125 -13.6875 12.25 C-14.77095703 12.23195312 -15.85441406 12.21390625 -16.97070312 12.1953125 C-19.64802146 12.14813508 -22.32356909 12.08232249 -25 12 C-25.38218767 10.34385343 -25.71395102 8.67542976 -26 7 C-25 6 -25 6 -22.77514648 5.88647461 C-21.81680908 5.89171143 -20.85847168 5.89694824 -19.87109375 5.90234375 C-18.31938477 5.90717773 -18.31938477 5.90717773 -16.73632812 5.91210938 C-15.64771484 5.92048828 -14.55910156 5.92886719 -13.4375 5.9375 C-11.7987793 5.94426758 -11.7987793 5.94426758 -10.12695312 5.95117188 C-7.41791505 5.96300174 -4.70898401 5.97948457 -2 6 C-1.67 5.01 -1.34 4.02 -1 3 C-0.67 2.01 -0.34 1.02 0 0 Z " fill="#2E2E2E" transform="translate(230,122)"/>
<path d="M0 0 C-1.32 0.33 -2.64 0.66 -4 1 C-4 1.66 -4 2.32 -4 3 C-1.03 3 1.94 3 5 3 C4.34 4.32 3.68 5.64 3 7 C0.69 6.34 -1.62 5.68 -4 5 C-3.67 7.31 -3.34 9.62 -3 12 C-3.99 12 -4.98 12 -6 12 C-7.02019573 12.9793879 -8.02149805 13.97895449 -9 15 C-9.66 15 -10.32 15 -11 15 C-11 14.34 -11 13.68 -11 13 C-12.65 13 -14.3 13 -16 13 C-17.1157177 9.65284689 -17.1807689 8.28928478 -16 5 C-13.6875 3.875 -13.6875 3.875 -11 3 C-10.071875 2.195625 -10.071875 2.195625 -9.125 1.375 C-6.08760717 -0.59037183 -3.53189293 -0.20376305 0 0 Z " fill="#272727" transform="translate(176,83)"/>
<path d="M0 0 C2 2 2 2 2 5 C3.65 5 5.3 5 7 5 C7.28875 5.639375 7.5775 6.27875 7.875 6.9375 C8.82823451 9.15206079 8.82823451 9.15206079 11 10 C11 11.65 11 13.3 11 15 C10.34 15 9.68 15 9 15 C9.66 16.65 10.32 18.3 11 20 C9.5 22 9.5 22 7 24 C4.24128373 24.35800135 1.79902476 24.18660165 -1 24 C-1 23.01 -1 22.02 -1 21 C2.465 20.505 2.465 20.505 6 20 C3.03 20 0.06 20 -3 20 C-3 19.34 -3 18.68 -3 18 C1.95 17.01 1.95 17.01 7 16 C7 15.01 7 14.02 7 13 C7.99 13 8.98 13 10 13 C10 12.34 10 11.68 10 11 C8.68 10.34 7.36 9.68 6 9 C3.9754262 10.93254772 2.57894208 12.63158688 1 15 C1.33 13.35 1.66 11.7 2 10 C-0.97 9.505 -0.97 9.505 -4 9 C-4.25 6.75 -4.25 6.75 -4 4 C-2 1.6875 -2 1.6875 0 0 Z " fill="#999999" transform="translate(144,15)"/>
<path d="M0 0 C0.33 0 0.66 0 1 0 C1.48828125 1.98567708 1.9765625 3.97135417 2.46484375 5.95703125 C2.91010705 7.65683202 3.44433985 9.33301954 4 11 C11.59 11.33 19.18 11.66 27 12 C26.67 13.65 26.34 15.3 26 17 C22.22956968 17.14496508 18.45985258 17.23395607 14.6875 17.3125 C13.61564453 17.35439453 12.54378906 17.39628906 11.43945312 17.43945312 C10.41142578 17.45556641 9.38339844 17.47167969 8.32421875 17.48828125 C7.37635498 17.51446533 6.42849121 17.54064941 5.4519043 17.56762695 C3 17 3 17 1.18554688 14.6640625 C-0.23702929 11.46736746 -0.30233548 9.17084301 -0.1875 5.6875 C-0.16042969 4.61886719 -0.13335937 3.55023438 -0.10546875 2.44921875 C-0.07066406 1.64097656 -0.03585938 0.83273438 0 0 Z " fill="#1E1E1E" transform="translate(236,117)"/>
<path d="M0 0 C1.74991334 -0.02715383 3.49994945 -0.04646551 5.25 -0.0625 C6.71179688 -0.07990234 6.71179688 -0.07990234 8.203125 -0.09765625 C10.65758678 -0.01195577 12.66168914 0.29293934 15 1 C15 1.66 15 2.32 15 3 C16.98 2.67 18.96 2.34 21 2 C21 2.99 21 3.98 21 5 C20.01 5 19.02 5 18 5 C18 6.32 18 7.64 18 9 C16.68 9 15.36 9 14 9 C14 9.66 14 10.32 14 11 C12.68 11 11.36 11 10 11 C9.67 12.32 9.34 13.64 9 15 C7.02 12.69 5.04 10.38 3 8 C3.99 6.02 4.98 4.04 6 2 C4.02 2 2.04 2 0 2 C0 1.34 0 0.68 0 0 Z " fill="#676767" transform="translate(107,72)"/>
<path d="M0 0 C0.66 1.32 1.32 2.64 2 4 C9.92 4.33 17.84 4.66 26 5 C25.67 6.65 25.34 8.3 25 10 C21.04172765 10.05785647 17.0835633 10.09354717 13.125 10.125 C11.99707031 10.14175781 10.86914062 10.15851563 9.70703125 10.17578125 C8.09248047 10.18544922 8.09248047 10.18544922 6.4453125 10.1953125 C4.95281982 10.21102295 4.95281982 10.21102295 3.43017578 10.22705078 C1 10 1 10 -1 8 C-0.96712417 5.27130593 -0.43602229 2.7033382 0 0 Z " fill="#202020" transform="translate(34,124)"/>
<path d="M0 0 C7 0 14 0 21 0 C21 0.66 21 1.32 21 2 C18.36 2.33 15.72 2.66 13 3 C13 3.99 13 4.98 13 6 C15.64 6.33 18.28 6.66 21 7 C21 7.66 21 8.32 21 9 C14 9 7 9 0 9 C-1.125 3.375 -1.125 3.375 0 0 Z " fill="#C8C8C8" transform="translate(144,54)"/>
<path d="M0 0 C1.32 0 2.64 0 4 0 C4 0.99 4 1.98 4 3 C5.65 3 7.3 3 9 3 C7.6875 5 7.6875 5 6 7 C5.01 7 4.02 7 3 7 C3 6.34 3 5.68 3 5 C2.34 5 1.68 5 1 5 C1.33 5.99 1.66 6.98 2 8 C2.34227417 9.33106622 2.67751743 10.66400079 3 12 C0.03 11.505 0.03 11.505 -3 11 C-3 11.66 -3 12.32 -3 13 C-5.31 13 -7.62 13 -10 13 C-10.33 10.69 -10.66 8.38 -11 6 C-8.09399739 4.74335022 -6.20395416 4 -3 4 C-2.67 3.01 -2.34 2.02 -2 1 C-2 1.66 -2 2.32 -2 3 C-1.34 3 -0.68 3 0 3 C0 2.01 0 1.02 0 0 Z " fill="#676767" transform="translate(125,31)"/>
<path d="M0 0 C3.95827235 -0.05785647 7.9164367 -0.09354717 11.875 -0.125 C13.00292969 -0.14175781 14.13085938 -0.15851563 15.29296875 -0.17578125 C16.36933594 -0.18222656 17.44570312 -0.18867187 18.5546875 -0.1953125 C19.54968262 -0.20578613 20.54467773 -0.21625977 21.56982422 -0.22705078 C24 0 24 0 26 2 C26.125 5.125 26.125 5.125 26 8 C25.34 7.34 24.68 6.68 24 6 C21.70719672 5.66228524 21.70719672 5.66228524 19.0625 5.65625 C18.08539063 5.62660156 17.10828125 5.59695312 16.1015625 5.56640625 C15.07804688 5.54449219 14.05453125 5.52257812 13 5.5 C10.97895878 5.45672834 8.95807444 5.40506031 6.9375 5.34375 C6.03902344 5.32505859 5.14054688 5.30636719 4.21484375 5.28710938 C2 5 2 5 0 3 C0 2.01 0 1.02 0 0 Z " fill="#0D0D0D" transform="translate(204,119)"/>
<path d="M0 0 C1.134375 0.020625 2.26875 0.04125 3.4375 0.0625 C2.7775 0.7225 2.1175 1.3825 1.4375 2.0625 C1.9325 2.51625 2.4275 2.97 2.9375 3.4375 C4.4375 5.0625 4.4375 5.0625 4.4375 7.0625 C3.4475 7.5575 3.4475 7.5575 2.4375 8.0625 C3.7575 8.3925 5.0775 8.7225 6.4375 9.0625 C6.4375 7.0825 6.4375 5.1025 6.4375 3.0625 C7.0975 3.0625 7.7575 3.0625 8.4375 3.0625 C8.4375 4.7125 8.4375 6.3625 8.4375 8.0625 C10.9125 8.5575 10.9125 8.5575 13.4375 9.0625 C13.4375 9.7225 13.4375 10.3825 13.4375 11.0625 C9.8075 11.3925 6.1775 11.7225 2.4375 12.0625 C2.4375 13.0525 2.4375 14.0425 2.4375 15.0625 C0.7875 15.0625 -0.8625 15.0625 -2.5625 15.0625 C-2.5625 14.4025 -2.5625 13.7425 -2.5625 13.0625 C-4.5425 13.0625 -6.5225 13.0625 -8.5625 13.0625 C-8.5625 12.4025 -8.5625 11.7425 -8.5625 11.0625 C-6.5825 10.7325 -4.6025 10.4025 -2.5625 10.0625 C-2.5625 9.4025 -2.5625 8.7425 -2.5625 8.0625 C-4.2125 8.0625 -5.8625 8.0625 -7.5625 8.0625 C-6.5725 7.4025 -5.5825 6.7425 -4.5625 6.0625 C-4.39578148 3.5207293 -4.39578148 3.5207293 -4.5625 1.0625 C-3.5625 0.0625 -3.5625 0.0625 0 0 Z " fill="#9F9F9F" transform="translate(166.5625,71.9375)"/>
<path d="M0 0 C0.33 0.99 0.66 1.98 1 3 C2.65 3.33 4.3 3.66 6 4 C5.67 5.98 5.34 7.96 5 10 C6.65 10 8.3 10 10 10 C10 10.66 10 11.32 10 12 C8.35 12 6.7 12 5 12 C5 12.66 5 13.32 5 14 C7.31 14 9.62 14 12 14 C11.67 14.99 11.34 15.98 11 17 C11.99 17 12.98 17 14 17 C13.67 18.65 13.34 20.3 13 22 C9.28400809 22.20086443 8.22791555 22.1519437 5 20 C5 19.34 5 18.68 5 18 C4.071875 18.309375 4.071875 18.309375 3.125 18.625 C2.42375 18.74875 1.7225 18.8725 1 19 C0.34 18.34 -0.32 17.68 -1 17 C-0.01 15.515 -0.01 15.515 1 14 C0.69159401 11.84725052 0.69159401 11.84725052 0 10 C0.66 10 1.32 10 2 10 C2 8.35 2 6.7 2 5 C1.01 4.67 0.02 4.34 -1 4 C-0.67 2.68 -0.34 1.36 0 0 Z " fill="#131313" transform="translate(153,20)"/>
<path d="M0 0 C8.25 0.33 16.5 0.66 25 1 C25 2.32 25 3.64 25 5 C21.20839703 5.05786668 17.41690689 5.09355054 13.625 5.125 C12.00464844 5.15013672 12.00464844 5.15013672 10.3515625 5.17578125 C9.3203125 5.18222656 8.2890625 5.18867188 7.2265625 5.1953125 C5.79691162 5.21102295 5.79691162 5.21102295 4.33837891 5.22705078 C2 5 2 5 0 3 C0 2.01 0 1.02 0 0 Z " fill="#050505" transform="translate(268,128)"/>
<path d="M0 0 C6.6 0 13.2 0 20 0 C19.67 1.65 19.34 3.3 19 5 C13.06 5 7.12 5 1 5 C0.67 3.35 0.34 1.7 0 0 Z " fill="#111111" transform="translate(272,119)"/>
<path d="M0 0 C1.32 0.33 2.64 0.66 4 1 C3.84402344 1.55429688 3.68804687 2.10859375 3.52734375 2.6796875 C3.33269531 3.40414062 3.13804687 4.12859375 2.9375 4.875 C2.74027344 5.59429687 2.54304687 6.31359375 2.33984375 7.0546875 C1.78867393 9.07273593 1.78867393 9.07273593 3 11 C1.35 10.67 -0.3 10.34 -2 10 C-2 11.65 -2 13.3 -2 15 C-5.3 15 -8.6 15 -12 15 C-12 13.68 -12 12.36 -12 11 C-10.02 11 -8.04 11 -6 11 C-6 10.34 -6 9.68 -6 9 C-4.5 7.375 -4.5 7.375 -3 6 C-3.66 5.67 -4.32 5.34 -5 5 C-4.34 3.68 -3.68 2.36 -3 1 C-3 2.32 -3 3.64 -3 5 C-2.34 4.67 -1.68 4.34 -1 4 C-0.34786708 1.97536745 -0.34786708 1.97536745 0 0 Z " fill="#A7A7A7" transform="translate(158,86)"/>
<path d="M0 0 C-0.226875 0.598125 -0.45375 1.19625 -0.6875 1.8125 C-0.790625 2.534375 -0.89375 3.25625 -1 4 C0.37514541 5.7087646 0.37514541 5.7087646 2 7 C2 7.33 2 7.66 2 8 C1.37351563 8.06058594 0.74703125 8.12117188 0.1015625 8.18359375 C-0.71570313 8.26738281 -1.53296875 8.35117188 -2.375 8.4375 C-3.18710938 8.51871094 -3.99921875 8.59992188 -4.8359375 8.68359375 C-7.04272805 8.89090114 -7.04272805 8.89090114 -9 10 C-8.67 8.68 -8.34 7.36 -8 6 C-8.66 6 -9.32 6 -10 6 C-10.33 6.66 -10.66 7.32 -11 8 C-13.875 8.125 -13.875 8.125 -17 8 C-17.66 7.34 -18.32 6.68 -19 6 C-18.01 6 -17.02 6 -16 6 C-16 5.01 -16 4.02 -16 3 C-15.32453125 2.95101562 -14.6490625 2.90203125 -13.953125 2.8515625 C-13.06109375 2.77679688 -12.1690625 2.70203125 -11.25 2.625 C-10.36828125 2.55539063 -9.4865625 2.48578125 -8.578125 2.4140625 C-5.4633461 1.91381013 -3.09275786 0 0 0 Z " fill="#191919" transform="translate(163,75)"/>
<path d="M0 0 C6.15234375 -0.09765625 6.15234375 -0.09765625 8 0 C9 1 9 1 9.125 4.5 C9 8 9 8 8 9 C5.32941149 9.14115161 2.67567762 9.04247107 0 9 C-1.125 2.25 -1.125 2.25 0 0 Z " fill="#D6D6D6" transform="translate(122,54)"/>
<path d="M0 0 C1.37504315 0.01775886 2.75005294 0.03842505 4.125 0.0625 C5.79431197 0.0625 7.46375637 0.05656847 9.1328125 0.02734375 C11.13007614 0.00154883 13.12782955 0.03028757 15.125 0.0625 C16.125 1.0625 16.125 1.0625 16.22265625 2.91015625 C16.19010417 4.9609375 16.15755208 7.01171875 16.125 9.0625 C15.465 9.0625 14.805 9.0625 14.125 9.0625 C14.125 6.7525 14.125 4.4425 14.125 2.0625 C12.145 2.0625 10.165 2.0625 8.125 2.0625 C8.125 4.3725 8.125 6.6825 8.125 9.0625 C7.465 9.0625 6.805 9.0625 6.125 9.0625 C6.125 8.0725 6.125 7.0825 6.125 6.0625 C5.465 6.0625 4.805 6.0625 4.125 6.0625 C3.795 5.0725 3.465 4.0825 3.125 3.0625 C0.20865871 2.8122843 0.20865871 2.8122843 -2.875 3.0625 C-3.535 4.0525 -4.195 5.0425 -4.875 6.0625 C-4.917721 4.39638095 -4.91563832 2.72867115 -4.875 1.0625 C-3.875 0.0625 -3.875 0.0625 0 0 Z " fill="#C5C5C5" transform="translate(170.875,53.9375)"/>
<path d="M0 0 C1.32 0.33 2.64 0.66 4 1 C4 2.32 4 3.64 4 5 C7.3 4.67 10.6 4.34 14 4 C13.67 4.66 13.34 5.32 13 6 C10.69 6 8.38 6 6 6 C5.67 7.32 5.34 8.64 5 10 C3.68 10.33 2.36 10.66 1 11 C1 10.34 1 9.68 1 9 C0.34 9 -0.32 9 -1 9 C-1.33 10.32 -1.66 11.64 -2 13 C-4.07553648 13.5534764 -5.84365964 14 -8 14 C-8 11.6875 -8 11.6875 -7 9 C-4.96832018 8.03670353 -2.98795847 7.4343821 -0.8125 6.87109375 C1.18675293 6.15088955 1.18675293 6.15088955 1.875 4.03515625 C1.91625 3.36355469 1.9575 2.69195312 2 2 C1.34 1.34 0.68 0.68 0 0 Z " fill="#393939" transform="translate(137,30)"/>
<path d="M0 0 C2.5 1.375 2.5 1.375 5 3 C5 3.66 5 4.32 5 5 C4.01 5 3.02 5 2 5 C2.33 6.32 2.66 7.64 3 9 C-7.939192 8.38400666 -7.939192 8.38400666 -12 5 C-12 4.34 -12 3.68 -12 3 C-9.525 3.495 -9.525 3.495 -7 4 C-6.67 3.34 -6.34 2.68 -6 2 C-6.66 1.67 -7.32 1.34 -8 1 C-6.02 1 -4.04 1 -2 1 C-2 1.66 -2 2.32 -2 3 C-1.34 2.01 -0.68 1.02 0 0 Z " fill="#151515" transform="translate(149,23)"/>
<path d="M0 0 C0.33 1.98 0.66 3.96 1 6 C0.01 6 -0.98 6 -2 6 C-3.02019573 6.9793879 -4.02149805 7.97895449 -5 9 C-5.66 9 -6.32 9 -7 9 C-7 8.34 -7 7.68 -7 7 C-8.65 7 -10.3 7 -12 7 C-12.33 6.01 -12.66 5.02 -13 4 C-10.04335481 2.5216774 -7.25770263 2.93967217 -4 3 C-4 2.34 -4 1.68 -4 1 C-5.32 1.33 -6.64 1.66 -8 2 C-8 1.34 -8 0.68 -8 0 C-5.13822943 -1.43088528 -3.06624227 -0.59991697 0 0 Z " fill="#636363" transform="translate(172,89)"/>
<path d="M0 0 C1.65 0.33 3.3 0.66 5 1 C5 8.26 5 15.52 5 23 C4.34 23 3.68 23 3 23 C3 17.39 3 11.78 3 6 C1.35 6.33 -0.3 6.66 -2 7 C-1.125 2.25 -1.125 2.25 0 0 Z " fill="#101010" transform="translate(116,110)"/>
<path d="M0 0 C1.32 0.33 2.64 0.66 4 1 C3.75 2.875 3.75 2.875 3 5 C1.0625 6.0625 1.0625 6.0625 -1 7 C-1.99 8.485 -1.99 8.485 -3 10 C-3.33 9.34 -3.66 8.68 -4 8 C-4.66 8 -5.32 8 -6 8 C-6.33 9.65 -6.66 11.3 -7 13 C-6.34 13.33 -5.68 13.66 -5 14 C-6.65 14 -8.3 14 -10 14 C-10 13.34 -10 12.68 -10 12 C-9.34 12 -8.68 12 -8 12 C-8.33 11.01 -8.66 10.02 -9 9 C-9.66 8.67 -10.32 8.34 -11 8 C-10.67 7.01 -10.34 6.02 -10 5 C-9.34 5 -8.68 5 -8 5 C-8 5.66 -8 6.32 -8 7 C-6.35 6.01 -4.7 5.02 -3 4 C-4.32 3.34 -5.64 2.68 -7 2 C-4.69 2 -2.38 2 0 2 C0 1.34 0 0.68 0 0 Z " fill="#A2A2A2" transform="translate(136,31)"/>
<path d="M0 0 C0.99 0 1.98 0 3 0 C3 7.59 3 15.18 3 23 C2.01 23 1.02 23 0 23 C0 15.41 0 7.82 0 0 Z " fill="#E4E4E4" transform="translate(102,47)"/>
<path d="M0 0 C0.33 0.66 0.66 1.32 1 2 C1.66 2 2.32 2 3 2 C3 7.28 3 12.56 3 18 C1.68 18.33 0.36 18.66 -1 19 C-1.02714735 16.77090129 -1.04646254 14.54170633 -1.0625 12.3125 C-1.07990234 10.45044922 -1.07990234 10.45044922 -1.09765625 8.55078125 C-1.01478673 5.53764546 -0.70839449 2.91724661 0 0 Z " fill="#3A3A3A" transform="translate(19,114)"/>
<path d="M0 0 C2 2 2 2 2 5 C3.65 5 5.3 5 7 5 C6.01 5.495 6.01 5.495 5 6 C4.855625 6.763125 4.71125 7.52625 4.5625 8.3125 C3.94535284 11.26109198 2.93117469 12.73296884 1 15 C1.33 13.35 1.66 11.7 2 10 C-0.97 9.505 -0.97 9.505 -4 9 C-4.25 6.75 -4.25 6.75 -4 4 C-2 1.6875 -2 1.6875 0 0 Z " fill="#A8A8A8" transform="translate(144,15)"/>
<path d="M0 0 C1.65 0.33 3.3 0.66 5 1 C5.66 2.98 6.32 4.96 7 7 C2.53763531 8.80619523 -0.31034294 9.11658501 -5 8 C-4.1875 5.5625 -4.1875 5.5625 -3 3 C-2.01 2.67 -1.02 2.34 0 2 C0 1.34 0 0.68 0 0 Z " fill="#383838" transform="translate(118,27)"/>
<path d="M0 0 C3.3 0 6.6 0 10 0 C10 1.65 10 3.3 10 5 C11.65 4.67 13.3 4.34 15 4 C14.1875 5.9375 14.1875 5.9375 13 8 C12.01 8.33 11.02 8.66 10 9 C10 8.34 10 7.68 10 7 C9.34 7 8.68 7 8 7 C7.67 6.34 7.34 5.68 7 5 C6.01 5.495 6.01 5.495 5 6 C5 5.34 5 4.68 5 4 C3.35 4 1.7 4 0 4 C0 2.68 0 1.36 0 0 Z " fill="#A2A2A2" transform="translate(146,16)"/>
<path d="M0 0 C0.33 0.99 0.66 1.98 1 3 C1.66 3 2.32 3 3 3 C3 2.34 3 1.68 3 1 C4.875 1.3125 4.875 1.3125 7 2 C7.99 3.485 7.99 3.485 9 5 C7.35 4.67 5.7 4.34 4 4 C4 4.99 4 5.98 4 7 C2.68 7 1.36 7 0 7 C0 6.34 0 5.68 0 5 C-0.66 5 -1.32 5 -2 5 C-2 5.66 -2 6.32 -2 7 C-2.66 7 -3.32 7 -4 7 C-4 7.66 -4 8.32 -4 9 C-4.99 9 -5.98 9 -7 9 C-7 8.01 -7 7.02 -7 6 C-6.01 6 -5.02 6 -4 6 C-4.33 5.01 -4.66 4.02 -5 3 C-4.01 2.34 -3.02 1.68 -2 1 C-2 1.66 -2 2.32 -2 3 C-1.34 3 -0.68 3 0 3 C0 2.01 0 1.02 0 0 Z " fill="#161616" transform="translate(125,78)"/>
<path d="M0 0 C2.05078125 0.03255208 4.1015625 0.06510417 6.15234375 0.09765625 C6.48234375 1.41765625 6.81234375 2.73765625 7.15234375 4.09765625 C6.49234375 4.09765625 5.83234375 4.09765625 5.15234375 4.09765625 C5.81234375 4.75765625 6.47234375 5.41765625 7.15234375 6.09765625 C6.82234375 7.08765625 6.49234375 8.07765625 6.15234375 9.09765625 C5.49234375 8.43765625 4.83234375 7.77765625 4.15234375 7.09765625 C1.58173064 6.44997832 1.58173064 6.44997832 -0.84765625 6.09765625 C-0.84765625 7.08765625 -0.84765625 8.07765625 -0.84765625 9.09765625 C-1.50765625 9.09765625 -2.16765625 9.09765625 -2.84765625 9.09765625 C-2.9453125 2.9453125 -2.9453125 2.9453125 -2.84765625 1.09765625 C-1.84765625 0.09765625 -1.84765625 0.09765625 0 0 Z " fill="#C2C2C2" transform="translate(112.84765625,53.90234375)"/>
<path d="M0 0 C0.99 0.33 1.98 0.66 3 1 C1.87548273 3.9719385 0.77706209 6.33440687 -1 9 C-1 7.68 -1 6.36 -1 5 C-3.97 5 -6.94 5 -10 5 C-10.66 6.32 -11.32 7.64 -12 9 C-14.125 9.75 -14.125 9.75 -16 10 C-16 9.01 -16 8.02 -16 7 C-14.68 6.67 -13.36 6.34 -12 6 C-11.67 4.68 -11.34 3.36 -11 2 C-7.37 2.33 -3.74 2.66 0 3 C0 2.01 0 1.02 0 0 Z " fill="#B2B2B2" transform="translate(152,80)"/>
<path d="M0 0 C4.31734008 -0.37005772 6.42457691 0.64774797 10 3 C10.99 3.33 11.98 3.66 13 4 C13 5.32 13 6.64 13 8 C4.375 6.98529412 4.375 6.98529412 1 5 C0.1875 2.375 0.1875 2.375 0 0 Z " fill="#333333" transform="translate(129,73)"/>
<path d="M0 0 C0.66 0.99 1.32 1.98 2 3 C0.35 3 -1.3 3 -3 3 C-3 2.34 -3 1.68 -3 1 C-3.66 1 -4.32 1 -5 1 C-5 1.66 -5 2.32 -5 3 C-5.99 3 -6.98 3 -8 3 C-8 3.66 -8 4.32 -8 5 C-4.37 5 -0.74 5 3 5 C3.33 5.99 3.66 6.98 4 8 C3.01 7.67 2.02 7.34 1 7 C-0.89212737 6.77820215 -2.78884472 6.59385985 -4.6875 6.4375 C-5.68136719 6.35371094 -6.67523438 6.26992188 -7.69921875 6.18359375 C-8.83810547 6.09271484 -8.83810547 6.09271484 -10 6 C-11 3 -11 3 -10 0 C-3.23076923 -1.38461538 -3.23076923 -1.38461538 0 0 Z " fill="#1A1A1A" transform="translate(180,28)"/>
<path d="M0 0 C1.32 0 2.64 0 4 0 C4 0.99 4 1.98 4 3 C5.65 3 7.3 3 9 3 C7.6875 5 7.6875 5 6 7 C5.01 7 4.02 7 3 7 C3 6.34 3 5.68 3 5 C2.34 5 1.68 5 1 5 C1 5.99 1 6.98 1 8 C0.34 7.67 -0.32 7.34 -1 7 C-0.67 6.34 -0.34 5.68 0 5 C-0.66 5 -1.32 5 -2 5 C-2.33 5.66 -2.66 6.32 -3 7 C-3.66 6.01 -4.32 5.02 -5 4 C-4.34 4 -3.68 4 -3 4 C-2.67 3.01 -2.34 2.02 -2 1 C-2 1.66 -2 2.32 -2 3 C-1.34 3 -0.68 3 0 3 C0 2.01 0 1.02 0 0 Z " fill="#111111" transform="translate(125,31)"/>
<path d="M0 0 C1.43655854 -0.08131463 2.8744483 -0.13933559 4.3125 -0.1875 C5.51326172 -0.23970703 5.51326172 -0.23970703 6.73828125 -0.29296875 C9.47851584 0.06198392 10.29171079 0.89366282 12 3 C11.67 3.99 11.34 4.98 11 6 C11 5.34 11 4.68 11 4 C10.34 4 9.68 4 9 4 C9.66 5.32 10.32 6.64 11 8 C9.35 7.67 7.7 7.34 6 7 C6.66 6.67 7.32 6.34 8 6 C8 5.34 8 4.68 8 4 C7.401875 4.33 6.80375 4.66 6.1875 5 C4 6 4 6 1 6 C0.67 4.02 0.34 2.04 0 0 Z " fill="#252525" transform="translate(124,24)"/>
<path d="M0 0 C3.82874101 3.99520801 3.20685937 5.65487497 4 12 C11.59 12.33 19.18 12.66 27 13 C27 13.33 27 13.66 27 14 C18.42 14 9.84 14 1 14 C-0.38226016 11.23547967 -0.09525387 8.9538637 -0.0625 5.875 C-0.05347656 4.77929688 -0.04445313 3.68359375 -0.03515625 2.5546875 C-0.02355469 1.71164063 -0.01195312 0.86859375 0 0 Z " fill="#5C5C5C" transform="translate(266,115)"/>
<path d="M0 0 C4.27056661 1.74949682 5.36216132 3.90850221 7.25 7.95703125 C8.14686826 10.40006301 8.32251441 12.4198847 8 15 C5 14 5 14 3.61328125 11.6015625 C3.18402344 10.61929688 2.75476563 9.63703125 2.3125 8.625 C1.87550781 7.64789063 1.43851562 6.67078125 0.98828125 5.6640625 C0 3 0 3 0 0 Z " fill="#1D1D1D" transform="translate(80,118)"/>
<path d="M0 0 C0.66 0 1.32 0 2 0 C5 8.6 5 8.6 5 12 C3.35 12 1.7 12 0 12 C0 11.34 0 10.68 0 10 C-1.98 10 -3.96 10 -6 10 C-6 9.34 -6 8.68 -6 8 C-4.02 7.67 -2.04 7.34 0 7 C0 4.69 0 2.38 0 0 Z " fill="#565656" transform="translate(164,75)"/>
<path d="M0 0 C1.32 0 2.64 0 4 0 C3.34 1.65 2.68 3.3 2 5 C2.66 5 3.32 5 4 5 C4 5.66 4 6.32 4 7 C3.01 7.33 2.02 7.66 1 8 C0.34 7.67 -0.32 7.34 -1 7 C-1.33 7.66 -1.66 8.32 -2 9 C-3.32 8.34 -4.64 7.68 -6 7 C-6 5.68 -6 4.36 -6 3 C-5.01 3.33 -4.02 3.66 -3 4 C-1.66893378 4.34227417 -0.33599921 4.67751743 1 5 C1 4.34 1 3.68 1 3 C0.01 2.67 -0.98 2.34 -2 2 C-1.34 1.34 -0.68 0.68 0 0 Z " fill="#1F1F1F" transform="translate(131,84)"/>
<path d="M0 0 C0.99 0.66 1.98 1.32 3 2 C2.67 2.66 2.34 3.32 2 4 C4.475 4.99 4.475 4.99 7 6 C7 6.66 7 7.32 7 8 C2.45194365 8.17835515 -0.8794254 7.99785435 -5 6 C-4.360625 5.855625 -3.72125 5.71125 -3.0625 5.5625 C-1.02454854 5.18992819 -1.02454854 5.18992819 0 4 C-2.31 4 -4.62 4 -7 4 C-6.01 3.67 -5.02 3.34 -4 3 C-3.67 2.34 -3.34 1.68 -3 1 C-3 1.66 -3 2.32 -3 3 C-2.34 3 -1.68 3 -1 3 C-0.67 2.01 -0.34 1.02 0 0 Z " fill="#B2B2B2" transform="translate(183,37)"/>
<path d="M0 0 C1.98 0.66 3.96 1.32 6 2 C4.68 2.33 3.36 2.66 2 3 C2.33 5.31 2.66 7.62 3 10 C3.99 10.33 4.98 10.66 6 11 C-0.625 11.125 -0.625 11.125 -4 10 C-4 9.34 -4 8.68 -4 8 C-2.35 8 -0.7 8 1 8 C0.01 6.35 -0.98 4.7 -2 3 C-1.34 2.01 -0.68 1.02 0 0 Z " fill="#A7A7A7" transform="translate(112,34)"/>
<path d="M0 0 C1.23556641 0.01740234 1.23556641 0.01740234 2.49609375 0.03515625 C3.32238281 0.04417969 4.14867187 0.05320313 5 0.0625 C5.63808594 0.07410156 6.27617187 0.08570313 6.93359375 0.09765625 C6.93359375 0.75765625 6.93359375 1.41765625 6.93359375 2.09765625 C4.29359375 2.42765625 1.65359375 2.75765625 -1.06640625 3.09765625 C-1.06640625 4.08765625 -1.06640625 5.07765625 -1.06640625 6.09765625 C1.57359375 6.42765625 4.21359375 6.75765625 6.93359375 7.09765625 C6.93359375 7.75765625 6.93359375 8.41765625 6.93359375 9.09765625 C5.45452483 9.12454841 3.97531892 9.14400246 2.49609375 9.16015625 C1.26052734 9.17755859 1.26052734 9.17755859 0 9.1953125 C-2.06640625 9.09765625 -2.06640625 9.09765625 -3.06640625 8.09765625 C-3.19140625 4.59765625 -3.19140625 4.59765625 -3.06640625 1.09765625 C-2.06640625 0.09765625 -2.06640625 0.09765625 0 0 Z " fill="#DBDBDB" transform="translate(158.06640625,53.90234375)"/>
<path d="M0 0 C2 3 2 3 2 6 C1.40832031 5.91621094 0.81664062 5.83242188 0.20703125 5.74609375 C-4.09939457 5.19110576 -7.75552644 4.76773348 -12 6 C-8.82952065 2.30110743 -4.90226152 0 0 0 Z " fill="#2F2F2F" transform="translate(137,17)"/>
<path d="M0 0 C1.423125 0.2784375 1.423125 0.2784375 2.875 0.5625 C5.89868793 1.28686632 5.89868793 1.28686632 8 0 C8 0.66 8 1.32 8 2 C8.99 1.34 9.98 0.68 11 0 C11.99 0.33 12.98 0.66 14 1 C13.34 2.32 12.68 3.64 12 5 C7.25081338 4.53439347 3.89217595 3.83067342 0 1 C0 0.67 0 0.34 0 0 Z " fill="#333333" transform="translate(125,94)"/>
<path d="M0 0 C2.31 0.33 4.62 0.66 7 1 C7 1.99 7 2.98 7 4 C8.65 3.34 10.3 2.68 12 2 C11.67 2.99 11.34 3.98 11 5 C9.68 5 8.36 5 7 5 C7.33 6.65 7.66 8.3 8 10 C6.68 9.67 5.36 9.34 4 9 C4.66 9 5.32 9 6 9 C6 8.34 6 7.68 6 7 C5.34 7 4.68 7 4 7 C4.66 5.35 5.32 3.7 6 2 C4.9171875 2.495 4.9171875 2.495 3.8125 3 C0.98302573 4.00603529 -1.02895466 4.16977402 -4 4 C-2.68 3.67 -1.36 3.34 0 3 C0 2.01 0 1.02 0 0 Z " fill="#727272" transform="translate(129,82)"/>
<path d="M0 0 C0.66 0 1.32 0 2 0 C2.309375 0.78375 2.61875 1.5675 2.9375 2.375 C3.92875038 4.92330128 3.92875038 4.92330128 5 7 C-1.75 8.125 -1.75 8.125 -4 7 C-4 6.34 -4 5.68 -4 5 C-4.66 4.67 -5.32 4.34 -6 4 C-4.35 3.34 -2.7 2.68 -1 2 C-0.67 2.66 -0.34 3.32 0 4 C0 2.68 0 1.36 0 0 Z " fill="#808080" transform="translate(145,87)"/>
<path d="M0 0 C3.3 0 6.6 0 10 0 C10 0.66 10 1.32 10 2 C9.34 2 8.68 2 8 2 C8 3.98 8 5.96 8 8 C6.35 7.67 4.7 7.34 3 7 C3.33 5.68 3.66 4.36 4 3 C4 3.99 4 4.98 4 6 C4.66 6 5.32 6 6 6 C5.67 4.68 5.34 3.36 5 2 C3.35 1.67 1.7 1.34 0 1 C0 0.67 0 0.34 0 0 Z " fill="#212121" transform="translate(165,73)"/>
<path d="M0 0 C1.134375 0.020625 2.26875 0.04125 3.4375 0.0625 C2.7775 0.7225 2.1175 1.3825 1.4375 2.0625 C1.9325 2.51625 2.4275 2.97 2.9375 3.4375 C4.4375 5.0625 4.4375 5.0625 4.4375 7.0625 C3.1175 7.0625 1.7975 7.0625 0.4375 7.0625 C0.1075 6.0725 -0.2225 5.0825 -0.5625 4.0625 C-1.2225 3.7325 -1.8825 3.4025 -2.5625 3.0625 C-2.5625 4.7125 -2.5625 6.3625 -2.5625 8.0625 C-4.2125 8.0625 -5.8625 8.0625 -7.5625 8.0625 C-6.5725 7.4025 -5.5825 6.7425 -4.5625 6.0625 C-4.39578148 3.5207293 -4.39578148 3.5207293 -4.5625 1.0625 C-3.5625 0.0625 -3.5625 0.0625 0 0 Z " fill="#969696" transform="translate(166.5625,71.9375)"/>
<path d="M0 0 C4.62 0 9.24 0 14 0 C14 0.66 14 1.32 14 2 C13.34 2 12.68 2 12 2 C12 2.66 12 3.32 12 4 C11.01 4 10.02 4 9 4 C8.67 4.99 8.34 5.98 8 7 C8 6.34 8 5.68 8 5 C7.01 4.67 6.02 4.34 5 4 C5 3.67 5 3.34 5 3 C4.67 2.34 4.34 1.68 4 1 C2.68 0.67 1.36 0.34 0 0 Z " fill="#A2A2A2" transform="translate(171,72)"/>
<path d="M0 0 C2.31 0 4.62 0 7 0 C7 1.65 7 3.3 7 5 C4.69 5 2.38 5 0 5 C0 3.35 0 1.7 0 0 Z " fill="#2F2F2F" transform="translate(145,56)"/>
<path d="M0 0 C2.97 0.495 2.97 0.495 6 1 C6 6.61 6 12.22 6 18 C5.67 18 5.34 18 5 18 C4.67 13.05 4.34 8.1 4 3 C3.34 3.66 2.68 4.32 2 5 C1.34 5 0.68 5 0 5 C-0.99 5.495 -0.99 5.495 -2 6 C-1.34 4.02 -0.68 2.04 0 0 Z " fill="#373737" transform="translate(113,115)"/>
<path d="M0 0 C3.3 0.33 6.6 0.66 10 1 C10 1.99 10 2.98 10 4 C6.7 4 3.4 4 0 4 C0 2.68 0 1.36 0 0 Z " fill="#2F2F2F" transform="translate(146,97)"/>
<path d="M0 0 C1.98 0 3.96 0 6 0 C6.5625 1.9375 6.5625 1.9375 7 4 C6 5 6 5 2.9375 5.0625 C1.4834375 5.0315625 1.4834375 5.0315625 0 5 C0 3.35 0 1.7 0 0 Z " fill="#292929" transform="translate(123,56)"/>
<path d="M0 0 C1.98 0.495 1.98 0.495 4 1 C3.01 1 2.02 1 1 1 C1 1.99 1 2.98 1 4 C1.99 4 2.98 4 4 4 C4 3.34 4 2.68 4 2 C4.66 2 5.32 2 6 2 C6 1.34 6 0.68 6 0 C6.66 0.33 7.32 0.66 8 1 C7.3125 3.4375 7.3125 3.4375 6 6 C3.375 6.8125 3.375 6.8125 1 7 C1 6.34 1 5.68 1 5 C0.34 4.67 -0.32 4.34 -1 4 C-0.67 2.68 -0.34 1.36 0 0 Z " fill="#878787" transform="translate(117,83)"/>
<path d="M0 0 C0 0.66 0 1.32 0 2 C1.98 2 3.96 2 6 2 C5.67 2.66 5.34 3.32 5 4 C3.35 4 1.7 4 0 4 C0 5.32 0 6.64 0 8 C-0.99 8 -1.98 8 -3 8 C-3 6.68 -3 5.36 -3 4 C-3.66 4 -4.32 4 -5 4 C-5 3.34 -5 2.68 -5 2 C-2 0 -2 0 0 0 Z " fill="#151515" transform="translate(158,83)"/>
<path d="M0 0 C1.32 0 2.64 0 4 0 C4 1.98 4 3.96 4 6 C4.66 6 5.32 6 6 6 C6 6.66 6 7.32 6 8 C3.36 8 0.72 8 -2 8 C-0.68 5.69 0.64 3.38 2 1 C1.34 0.67 0.68 0.34 0 0 Z " fill="#1B1B1B" transform="translate(169,36)"/>
<path d="M0 0 C0.66 0.33 1.32 0.66 2 1 C1.67 2.65 1.34 4.3 1 6 C-2.71599191 6.20086443 -3.77208445 6.1519437 -7 4 C-6.67 3.01 -6.34 2.02 -6 1 C-4.7934375 1.0309375 -4.7934375 1.0309375 -3.5625 1.0625 C-1.06645115 1.29633621 -1.06645115 1.29633621 0 0 Z " fill="#3A3A3A" transform="translate(165,36)"/>
<path d="M0 0 C0.66 1.32 1.32 2.64 2 4 C-1.29044529 5.0968151 -1.83114824 4.90538622 -5 4 C-6.99788438 3.65421232 -8.99759451 3.31856451 -11 3 C-10.67 2.34 -10.34 1.68 -10 1 C-6.6322481 0.06451336 -3.4815554 -0.09947301 0 0 Z " fill="#A5A5A5" transform="translate(135,21)"/>
<path d="M0 0 C2.31 0 4.62 0 7 0 C6.01 0.495 6.01 0.495 5 1 C5 2.32 5 3.64 5 5 C2.125 5.125 2.125 5.125 -1 5 C-1.66 4.34 -2.32 3.68 -3 3 C-2.01 3 -1.02 3 0 3 C0 2.01 0 1.02 0 0 Z " fill="#565656" transform="translate(147,78)"/>
<path d="M0 0 C0.721875 0.00257812 1.44375 0.00515625 2.1875 0.0078125 C2.909375 0.00523438 3.63125 0.00265625 4.375 0 C6.1875 0.1328125 6.1875 0.1328125 7.1875 1.1328125 C7.22813832 2.79898365 7.230221 4.46669345 7.1875 6.1328125 C6.5275 5.1428125 5.8675 4.1528125 5.1875 3.1328125 C2.1875 2.6328125 2.1875 2.6328125 -0.8125 3.1328125 C-1.4725 4.1228125 -2.1325 5.1128125 -2.8125 6.1328125 C-2.855221 4.46669345 -2.85313832 2.79898365 -2.8125 1.1328125 C-1.8125 0.1328125 -1.8125 0.1328125 0 0 Z " fill="#D9D9D9" transform="translate(168.8125,53.8671875)"/>
<path d="M0 0 C1.875 0.3125 1.875 0.3125 4 1 C4.66 1.99 5.32 2.98 6 4 C4.35 3.67 2.7 3.34 1 3 C1 3.99 1 4.98 1 6 C-0.32 6 -1.64 6 -3 6 C-3 5.01 -3 4.02 -3 3 C-2.01 3 -1.02 3 0 3 C0 2.01 0 1.02 0 0 Z " fill="#060606" transform="translate(128,79)"/>
<path d="M0 0 C0.33 0 0.66 0 1 0 C1 1.65 1 3.3 1 5 C2.65 5.33 4.3 5.66 6 6 C6 6.33 6 6.66 6 7 C3.69 7.33 1.38 7.66 -1 8 C-1.66 6.68 -2.32 5.36 -3 4 C-2.02727325 2.64664105 -1.0260734 1.31337396 0 0 Z " fill="#A8A8A8" transform="translate(113,75)"/>
<path d="M0 0 C3.63 0 7.26 0 11 0 C10.01 0.495 10.01 0.495 9 1 C9.33 2.65 9.66 4.3 10 6 C9.34 5.67 8.68 5.34 8 5 C8 4.01 8 3.02 8 2 C6.02 2.33 4.04 2.66 2 3 C2 2.34 2 1.68 2 1 C1.34 0.67 0.68 0.34 0 0 Z " fill="#B0B0B0" transform="translate(120,72)"/>
<path d="M0 0 C2.97 0 5.94 0 9 0 C9 0.99 9 1.98 9 3 C6.03 3 3.06 3 0 3 C0 2.01 0 1.02 0 0 Z " fill="#090909" transform="translate(156,57)"/>
<path d="M0 0 C0.99 0.33 1.98 0.66 3 1 C3 1.66 3 2.32 3 3 C5.31 3 7.62 3 10 3 C9.67 3.66 9.34 4.32 9 5 C6.67843403 5.40729228 4.3431213 5.74438677 2 6 C2 5.34 2 4.68 2 4 C1.34 4 0.68 4 0 4 C0 2.68 0 1.36 0 0 Z " fill="#8F8F8F" transform="translate(173,38)"/>
<path d="M0 0 C0.68707555 2.49064888 1 4.37886292 1 7 C1.66 7.66 2.32 8.32 3 9 C-2.75 9.125 -2.75 9.125 -5 8 C-5 7.34 -5 6.68 -5 6 C-3.68 6 -2.36 6 -1 6 C-1.020625 5.195625 -1.04125 4.39125 -1.0625 3.5625 C-1 1 -1 1 0 0 Z " fill="#A6A6A6" transform="translate(167,36)"/>
<path d="M0 0 C0.66 0 1.32 0 2 0 C2 0.66 2 1.32 2 2 C4.31 2.33 6.62 2.66 9 3 C8.67 3.66 8.34 4.32 8 5 C4.37 4.67 0.74 4.34 -3 4 C-3 3.34 -3 2.68 -3 2 C-2.01 2 -1.02 2 0 2 C0 1.34 0 0.68 0 0 Z " fill="#BCBCBC" transform="translate(175,29)"/>
<path d="M0 0 C0.66 0.66 1.32 1.32 2 2 C0.77065985 5.68802044 -0.93859378 6.72356973 -4 9 C-4.25 6.75 -4.25 6.75 -4 4 C-2 1.6875 -2 1.6875 0 0 Z " fill="#B2B2B2" transform="translate(144,15)"/>
<path d="M0 0 C0.75 1.6875 0.75 1.6875 1 4 C-0.9375 6.75 -0.9375 6.75 -3 9 C-3.66 8.67 -4.32 8.34 -5 8 C-4.64950425 4.75791433 -4.43778819 3.38472296 -1.9375 1.1875 C-1.298125 0.795625 -0.65875 0.40375 0 0 Z " fill="#131313" transform="translate(114,118)"/>
<path d="M0 0 C2.475 0.99 2.475 0.99 5 2 C5 3.32 5 4.64 5 6 C2.69 5.67 0.38 5.34 -2 5 C-2 4.34 -2 3.68 -2 3 C-1.34 3 -0.68 3 0 3 C0 2.01 0 1.02 0 0 Z " fill="#181818" transform="translate(137,75)"/>
<path d="M0 0 C1.98 0.99 1.98 0.99 4 2 C3.67 3.98 3.34 5.96 3 8 C2.01 8 1.02 8 0 8 C0 5.36 0 2.72 0 0 Z " fill="#676767" transform="translate(169,20)"/>
<path d="M0 0 C0.33 0.66 0.66 1.32 1 2 C1.66 2 2.32 2 3 2 C2.33035714 10.16964286 2.33035714 10.16964286 -1 13 C-1.02696365 11.20841511 -1.04637917 9.41671527 -1.0625 7.625 C-1.07410156 6.62726563 -1.08570313 5.62953125 -1.09765625 4.6015625 C-1 2 -1 2 0 0 Z " fill="#3A3A3A" transform="translate(236,113)"/>
<path d="M0 0 C3.96 0 7.92 0 12 0 C11.01 0.495 11.01 0.495 10 1 C9.67 1.66 9.34 2.32 9 3 C6.03 2.67 3.06 2.34 0 2 C0 1.34 0 0.68 0 0 Z " fill="#C3C3C3" transform="translate(172,84)"/>
<path d="M0 0 C0.99 0.33 1.98 0.66 3 1 C1.87548273 3.9719385 0.77706209 6.33440687 -1 9 C-1 7.68 -1 6.36 -1 5 C-2.32 4.67 -3.64 4.34 -5 4 C-5 3.67 -5 3.34 -5 3 C-3.35 3 -1.7 3 0 3 C0 2.01 0 1.02 0 0 Z " fill="#959595" transform="translate(152,80)"/>
<path d="M0 0 C2.31 0 4.62 0 7 0 C7 0.66 7 1.32 7 2 C7.66 2.33 8.32 2.66 9 3 C7.02 3.66 5.04 4.32 3 5 C2.67 4.01 2.34 3.02 2 2 C1.34 2 0.68 2 0 2 C0 1.34 0 0.68 0 0 Z " fill="#1D1D1D" transform="translate(115,73)"/>
<path d="M0 0 C0.33 0.66 0.66 1.32 1 2 C1.94875 1.814375 2.8975 1.62875 3.875 1.4375 C7 1 7 1 9 2 C9 2.66 9 3.32 9 4 C6.69 3.67 4.38 3.34 2 3 C1.67 3.99 1.34 4.98 1 6 C0 5 0 5 -0.0625 2.4375 C-0.041875 1.633125 -0.02125 0.82875 0 0 Z " fill="#C7C7C7" transform="translate(143,93)"/>
<path d="M0 0 C1.98 0 3.96 0 6 0 C6 1.32 6 2.64 6 4 C4.02 4 2.04 4 0 4 C0 2.68 0 1.36 0 0 Z " fill="#1C1C1C" transform="translate(168,56)"/>
<path d="M0 0 C0 0.66 0 1.32 0 2 C0.99 2.33 1.98 2.66 3 3 C2.67 3.66 2.34 4.32 2 5 C-0.31 5 -2.62 5 -5 5 C-5 3 -5 3 -3.625 1.375 C-2 0 -2 0 0 0 Z " fill="#191919" transform="translate(120,39)"/>
<path d="M0 0 C2.97 0 5.94 0 9 0 C9 0.66 9 1.32 9 2 C7.02 2 5.04 2 3 2 C3 2.66 3 3.32 3 4 C2.01 4 1.02 4 0 4 C0 2.68 0 1.36 0 0 Z " fill="#1B1B1B" transform="translate(146,16)"/>
<path d="M0 0 C1.98 0 3.96 0 6 0 C5.01 0.495 5.01 0.495 4 1 C4 1.66 4 2.32 4 3 C5.32 2.67 6.64 2.34 8 2 C8 2.66 8 3.32 8 4 C5.36 4.33 2.72 4.66 0 5 C0 3.35 0 1.7 0 0 Z " fill="#232323" transform="translate(160,88)"/>
<path d="M0 0 C0.33 0.99 0.66 1.98 1 3 C1.99 3.66 2.98 4.32 4 5 C2.35 5 0.7 5 -1 5 C-1 4.34 -1 3.68 -1 3 C-2.98 3 -4.96 3 -7 3 C-7 2.34 -7 1.68 -7 1 C-3.535 0.505 -3.535 0.505 0 0 Z " fill="#8D8D8D" transform="translate(165,82)"/>
<path d="M0 0 C0 1.32 0 2.64 0 4 C-1.32 4.33 -2.64 4.66 -4 5 C-4 4.34 -4 3.68 -4 3 C-4.99 3 -5.98 3 -7 3 C-7 2.34 -7 1.68 -7 1 C-4 0 -4 0 0 0 Z " fill="#101010" transform="translate(142,36)"/>
<path d="M0 0 C1.65 0.99 3.3 1.98 5 3 C4.01 3.495 4.01 3.495 3 4 C2.34 3.67 1.68 3.34 1 3 C1 3.99 1 4.98 1 6 C1.66 6.33 2.32 6.66 3 7 C1.68 7 0.36 7 -1 7 C-1 6.01 -1 5.02 -1 4 C-1.66 3.67 -2.32 3.34 -3 3 C-2.01 2.67 -1.02 2.34 0 2 C0 1.34 0 0.68 0 0 Z " fill="#929292" transform="translate(118,27)"/>
<path d="M0 0 C0.99 1.32 1.98 2.64 3 4 C1.68 4 0.36 4 -1 4 C-1.33 4.66 -1.66 5.32 -2 6 C-2.66 6 -3.32 6 -4 6 C-5.625 4 -5.625 4 -7 2 C-4.69 2 -2.38 2 0 2 C0 1.34 0 0.68 0 0 Z " fill="#6E6E6E" transform="translate(184,34)"/>
<path d="M0 0 C1.875 0.8125 1.875 0.8125 3.875 3.8125 C2.225 3.8125 0.575 3.8125 -1.125 3.8125 C-1.125 3.1525 -1.125 2.4925 -1.125 1.8125 C-1.785 1.8125 -2.445 1.8125 -3.125 1.8125 C-3.455 2.4725 -3.785 3.1325 -4.125 3.8125 C-4.785 3.1525 -5.445 2.4925 -6.125 1.8125 C-3.90523089 0.46478304 -2.62352224 -0.23148726 0 0 Z " fill="#424242" transform="translate(178.125,27.1875)"/>
<path d="M0 0 C1.670625 0.061875 1.670625 0.061875 3.375 0.125 C2.715 1.445 2.055 2.765 1.375 4.125 C-0.935 3.465 -3.245 2.805 -5.625 2.125 C-3.625 0.125 -3.625 0.125 0 0 Z " fill="#414141" transform="translate(177.625,85.875)"/>
<path d="M0 0 C2.31 0 4.62 0 7 0 C7 0.66 7 1.32 7 2 C7.99 2.33 8.98 2.66 10 3 C3.375 3.125 3.375 3.125 0 2 C0 1.34 0 0.68 0 0 Z " fill="#AEAEAE" transform="translate(108,42)"/>
<path d="M0 0 C0.66 1.32 1.32 2.64 2 4 C2.66 4 3.32 4 4 4 C4 4.66 4 5.32 4 6 C2.35 6.33 0.7 6.66 -1 7 C-1.625 5.1875 -1.625 5.1875 -2 3 C-1.34 2.01 -0.68 1.02 0 0 Z " fill="#A3A3A3" transform="translate(159,24)"/>
<path d="M0 0 C0.33 0 0.66 0 1 0 C1.66 3.63 2.32 7.26 3 11 C2.01 11.33 1.02 11.66 0 12 C0 8.04 0 4.08 0 0 Z " fill="#141414" transform="translate(236,117)"/>
<path d="M0 0 C0.99 0.33 1.98 0.66 3 1 C2.34 2.32 1.68 3.64 1 5 C-0.65 5 -2.3 5 -4 5 C-3 2 -3 2 0 0 Z " fill="#212121" transform="translate(136,94)"/>
<path d="M0 0 C2.64 0 5.28 0 8 0 C8.33 1.32 8.66 2.64 9 4 C4.545 3.01 4.545 3.01 0 2 C0 1.34 0 0.68 0 0 Z " fill="#DBDBDB" transform="translate(111,54)"/>
<path d="M0 0 C1.65 0.33 3.3 0.66 5 1 C4.67 2.32 4.34 3.64 4 5 C3.34 5 2.68 5 2 5 C2 4.34 2 3.68 2 3 C1.01 2.67 0.02 2.34 -1 2 C-0.67 1.34 -0.34 0.68 0 0 Z " fill="#212121" transform="translate(163,93)"/>
<path d="M0 0 C1.98 0.495 1.98 0.495 4 1 C3.34 2.98 2.68 4.96 2 7 C0.4375 5.75 0.4375 5.75 -1 4 C-0.6875 1.8125 -0.6875 1.8125 0 0 Z " fill="#B2B2B2" transform="translate(158,86)"/>
<path d="M0 0 C2 2 2 2 2.125 5.125 C2.08375 6.07375 2.0425 7.0225 2 8 C1.34 8 0.68 8 0 8 C-0.38063221 5.6739143 -0.71269945 3.33944736 -1 1 C-0.67 0.67 -0.34 0.34 0 0 Z " fill="#969696" transform="translate(177,55)"/>
<path d="M0 0 C0.99 0.66 1.98 1.32 3 2 C1 4 1 4 -0.9453125 4.1953125 C-2.96354167 4.13020833 -4.98177083 4.06510417 -7 4 C-6.01 3.67 -5.02 3.34 -4 3 C-3.67 2.34 -3.34 1.68 -3 1 C-3 1.66 -3 2.32 -3 3 C-2.34 3 -1.68 3 -1 3 C-0.67 2.01 -0.34 1.02 0 0 Z " fill="#BFBFBF" transform="translate(183,37)"/>
<path d="M0 0 C0.33 0.99 0.66 1.98 1 3 C2.65 3.33 4.3 3.66 6 4 C6 4.66 6 5.32 6 6 C3.03 5.505 3.03 5.505 0 5 C-0.5625 3.0625 -0.5625 3.0625 -1 1 C-0.67 0.67 -0.34 0.34 0 0 Z " fill="#555555" transform="translate(153,20)"/>
<path d="M0 0 C1.98 0 3.96 0 6 0 C5.1875 1.9375 5.1875 1.9375 4 4 C3.01 4.33 2.02 4.66 1 5 C1 4.34 1 3.68 1 3 C0.34 2.67 -0.32 2.34 -1 2 C-0.67 1.34 -0.34 0.68 0 0 Z " fill="#ACACAC" transform="translate(155,20)"/>
<path d="M0 0 C1.125 3.75 1.125 3.75 0 6 C-0.99 6 -1.98 6 -3 6 C-3 4.68 -3 3.36 -3 2 C-2.01 1.34 -1.02 0.68 0 0 Z " fill="#141414" transform="translate(71,117)"/>
<path d="M0 0 C1.98 0 3.96 0 6 0 C5.34 1.32 4.68 2.64 4 4 C3.34 4 2.68 4 2 4 C2 3.34 2 2.68 2 2 C1.34 2 0.68 2 0 2 C0 1.34 0 0.68 0 0 Z " fill="#BABABA" transform="translate(131,92)"/>
<path d="M0 0 C-0.33 1.32 -0.66 2.64 -1 4 C-2.32 4.33 -3.64 4.66 -5 5 C-5 3.68 -5 2.36 -5 1 C-2 0 -2 0 0 0 Z " fill="#3C3C3C" transform="translate(163,75)"/>
<path d="M0 0 C1.98 0 3.96 0 6 0 C5.34 1.98 4.68 3.96 4 6 C3.01 5.34 2.02 4.68 1 4 C1.33 3.01 1.66 2.02 2 1 C1.34 0.67 0.68 0.34 0 0 Z " fill="#464646" transform="translate(141,24)"/>
<path d="M0 0 C3 1 3 1 5 2 C5 2.66 5 3.32 5 4 C3.02 4 1.04 4 -1 4 C-0.67 2.68 -0.34 1.36 0 0 Z " fill="#828282" transform="translate(162,21)"/>
</svg>
