<svg xmlns="http://www.w3.org/2000/svg" xmlns:xlink="http://www.w3.org/1999/xlink" width="1920" zoomAndPan="magnify" viewBox="0 0 1440 809.999993" height="1080" preserveAspectRatio="xMidYMid meet" version="1.0"><defs><clipPath id="9731ce1704"><path d="M 0 622 L 170 622 L 170 810 L 0 810 Z M 0 622 " clip-rule="nonzero"/></clipPath><clipPath id="d15c8a4d67"><path d="M 81.972656 622.367188 L 169.332031 702.4375 L 5.140625 881.574219 L -82.214844 801.507812 Z M 81.972656 622.367188 " clip-rule="nonzero"/></clipPath><clipPath id="cbbe920c17"><path d="M 81.96875 622.375 L 169.394531 702.507812 L 5.21875 881.628906 L -82.210938 801.5 Z M 81.96875 622.375 " clip-rule="nonzero"/></clipPath><clipPath id="f49343808c"><path d="M 0 139 L 136 139 L 136 354 L 0 354 Z M 0 139 " clip-rule="nonzero"/></clipPath><clipPath id="dec8ecbeb4"><path d="M 135.1875 247.933594 L 82.222656 353.9375 L -135.15625 245.332031 L -82.191406 139.324219 Z M 135.1875 247.933594 " clip-rule="nonzero"/></clipPath><clipPath id="6ac8432a47"><path d="M 135.175781 247.929688 L 82.171875 354.015625 L -135.1875 245.421875 L -82.183594 139.332031 Z M 135.175781 247.929688 " clip-rule="nonzero"/></clipPath><clipPath id="5b11e01a7f"><path d="M 1286 0 L 1440 0 L 1440 177 L 1286 177 Z M 1286 0 " clip-rule="nonzero"/></clipPath><clipPath id="119ed5d049"><path d="M 1392.761719 176.585938 L 1286.945312 123.246094 L 1396.320312 -93.746094 L 1502.136719 -40.410156 Z M 1392.761719 176.585938 " clip-rule="nonzero"/></clipPath><clipPath id="60e62a8f86"><path d="M 1392.765625 176.574219 L 1286.867188 123.195312 L 1396.230469 -93.777344 L 1502.132812 -40.398438 Z M 1392.765625 176.574219 " clip-rule="nonzero"/></clipPath><clipPath id="81ad0e3237"><path d="M 1306 410 L 1440 410 L 1440 594 L 1306 594 Z M 1306 410 " clip-rule="nonzero"/></clipPath><clipPath id="d7590b0b60"><path d="M 1306.660156 524.332031 L 1340.300781 410.707031 L 1573.304688 479.695312 L 1539.660156 593.320312 Z M 1306.660156 524.332031 " clip-rule="nonzero"/></clipPath><clipPath id="9f984dcfc1"><path d="M 1306.667969 524.335938 L 1340.339844 410.621094 L 1573.320312 479.601562 L 1539.652344 593.316406 Z M 1306.667969 524.335938 " clip-rule="nonzero"/></clipPath><clipPath id="ebd7274239"><path d="M 1236 702 L 1440 702 L 1440 810 L 1236 810 Z M 1236 702 " clip-rule="nonzero"/></clipPath><clipPath id="6c3ffcb35c"><path d="M 1481.09375 892.707031 L 1388.425781 966.566406 L 1236.96875 776.539062 L 1329.636719 702.679688 Z M 1481.09375 892.707031 " clip-rule="nonzero"/></clipPath><clipPath id="0d2a77fa7c"><path d="M 1481.085938 892.699219 L 1388.347656 966.613281 L 1236.902344 776.605469 L 1329.644531 702.6875 Z M 1481.085938 892.699219 " clip-rule="nonzero"/></clipPath><clipPath id="e29f12c0d8"><path d="M 0 0 L 120 0 L 120 108 L 0 108 Z M 0 0 " clip-rule="nonzero"/></clipPath><clipPath id="10d6ab7705"><path d="M 119.152344 1.257812 L 66.1875 107.265625 L -151.191406 -1.34375 L -98.226562 -107.347656 Z M 119.152344 1.257812 " clip-rule="nonzero"/></clipPath><clipPath id="6a78835d39"><path d="M 119.140625 1.253906 L 66.136719 107.34375 L -151.222656 -1.253906 L -98.21875 -107.34375 Z M 119.140625 1.253906 " clip-rule="nonzero"/></clipPath></defs><rect x="-144" width="1728" fill="#ffffff" y="-80.999999" height="971.999992" fill-opacity="1"/><rect x="-144" width="1728" fill="#ffffff" y="-80.999999" height="971.999992" fill-opacity="1"/><path fill="#31d2f2" d="M 720 0 L 1440 0 L 1440 810 L 720 810 Z M 720 0 " fill-opacity="1" fill-rule="nonzero"/><g clip-path="url(#9731ce1704)"><g clip-path="url(#d15c8a4d67)"><g clip-path="url(#cbbe920c17)"><path stroke-linecap="butt" transform="matrix(0.552895, 0.506762, -0.506762, 0.552895, 81.967084, 622.376773)" fill="none" stroke-linejoin="miter" d="M 0.0000400283 -0.00324289 L 158.125371 -0.00152372 L 158.125009 323.968461 L -0.000642428 323.974101 Z M 0.0000400283 -0.00324289 " stroke="#737373" stroke-width="4" stroke-opacity="1" stroke-miterlimit="4"/></g></g></g><g clip-path="url(#f49343808c)"><g clip-path="url(#dec8ecbeb4)"><g clip-path="url(#6ac8432a47)"><path stroke-linecap="butt" transform="matrix(-0.335207, 0.670922, -0.670922, -0.335207, 135.176805, 247.928064)" fill="none" stroke-linejoin="miter" d="M 0.00254613 0.000253815 L 158.122834 0.00145196 L 158.127419 323.97044 L 0.00247214 323.97157 Z M 0.00254613 0.000253815 " stroke="#737373" stroke-width="4" stroke-opacity="1" stroke-miterlimit="4"/></g></g></g><g clip-path="url(#5b11e01a7f)"><g clip-path="url(#119ed5d049)"><g clip-path="url(#60e62a8f86)"><path stroke-linecap="butt" transform="matrix(-0.669732, -0.337579, 0.337579, -0.669732, 1392.767504, 176.574928)" fill="none" stroke-linejoin="miter" d="M 0.00266298 -0.000283397 L 158.123783 0.000584733 L 158.126079 323.968933 L 0.000308719 323.970409 Z M 0.00266298 -0.000283397 " stroke="#737373" stroke-width="4" stroke-opacity="1" stroke-miterlimit="4"/></g></g></g><g clip-path="url(#81ad0e3237)"><g clip-path="url(#d7590b0b60)"><g clip-path="url(#9f984dcfc1)"><path stroke-linecap="butt" transform="matrix(0.212924, -0.719141, 0.719141, 0.212924, 1306.66986, 524.334018)" fill="none" stroke-linejoin="miter" d="M -0.00317059 -0.0016918 L 158.123983 0.00219238 L 158.124862 323.97257 L -0.000813113 323.97368 Z M -0.00317059 -0.0016918 " stroke="#737373" stroke-width="4" stroke-opacity="1" stroke-miterlimit="4"/></g></g></g><g clip-path="url(#ebd7274239)"><g clip-path="url(#6c3ffcb35c)"><g clip-path="url(#0d2a77fa7c)"><path stroke-linecap="butt" transform="matrix(-0.5865, 0.467458, -0.467458, -0.5865, 1481.086444, 892.698263)" fill="none" stroke-linejoin="miter" d="M 0.001322 -0.000575756 L 158.121818 0.000569165 L 158.125416 323.972165 L -0.0023992 323.971846 Z M 0.001322 -0.000575756 " stroke="#737373" stroke-width="4" stroke-opacity="1" stroke-miterlimit="4"/></g></g></g><g clip-path="url(#e29f12c0d8)"><g clip-path="url(#10d6ab7705)"><g clip-path="url(#6a78835d39)"><path stroke-linecap="butt" transform="matrix(-0.335207, 0.670922, -0.670922, -0.335207, 119.141199, 1.25408)" fill="none" stroke-linejoin="miter" d="M 0.000134617 0.000787728 L 158.125082 -0.000341959 L 158.125008 323.970974 L 0.0000606291 323.972104 Z M 0.000134617 0.000787728 " stroke="#737373" stroke-width="4" stroke-opacity="1" stroke-miterlimit="4"/></g></g></g></svg>